<svg width="70" height="70" viewBox="0 0 70 70" fill="none" xmlns="http://www.w3.org/2000/svg">
<path d="M47.8409 56.2128C59.7306 48.9468 63.4788 33.4179 56.2128 21.5282C48.9467 9.63855 33.4179 5.89035 21.5282 13.1564C9.6385 20.4224 5.8903 35.9512 13.1563 47.8409C20.4224 59.7306 35.9512 63.4788 47.8409 56.2128Z" fill="#C7C7C7"/>
<path d="M58.0326 44.2609C56.3983 48.2527 53.7678 51.7588 50.3924 54.4444C47.0171 57.1299 43.0096 58.9053 38.7526 59.6009L38.3226 59.6609C37.1273 59.8372 35.9209 59.9274 34.7126 59.9309C34.2026 59.9309 33.7126 59.9309 33.1826 59.8709C32.9026 59.8709 32.6226 59.8509 32.3426 59.8109C29.0814 59.5131 25.911 58.5752 23.0126 57.0509C19.4094 55.165 16.3155 52.436 13.9944 49.0964C11.6734 45.7568 10.1941 41.9056 9.68262 37.8709C11.1226 34.8709 15.0326 35.2709 16.4326 31.8709C16.5226 31.6509 16.6226 31.3709 16.7226 31.0509C17.6645 27.6015 18.8921 24.2365 20.3926 20.9909V20.9109C21.9026 17.9609 23.9526 15.2809 26.8026 14.0109C28.4334 13.3191 30.1915 12.9784 31.9626 13.0109C32.6311 13.0118 33.2989 13.0518 33.9626 13.1309C35.1215 13.2558 36.2642 13.5004 37.3726 13.8609C38.5226 13.9709 43.4726 13.2309 46.9326 17.6409C48.0465 19.2967 48.8715 21.1293 49.3726 23.0609C50.2971 26.3168 51.0382 29.622 51.5926 32.9609C51.8926 34.6109 52.1326 35.9609 52.3326 36.9609C52.3326 37.2109 52.4326 37.4209 52.4826 37.6109C53.2426 40.4109 56.9726 40.7309 57.9526 43.9909C57.9926 44.0709 58.0126 44.1709 58.0326 44.2609Z" fill="#263238"/>
<path d="M58.6628 42.5409C58.5694 42.8342 58.4694 43.1242 58.3628 43.4109C58.2422 43.018 58.0599 42.6467 57.8228 42.3109C57.0641 41.2823 56.1498 40.3781 55.1128 39.6309L53.5928 38.4009C53.0658 38.0207 52.6372 37.5202 52.3428 36.9409C52.6964 37.4713 53.1646 37.9155 53.7128 38.2409L55.3328 39.3409C56.4701 40.0554 57.4834 40.9504 58.3328 41.9909C58.4571 42.1653 58.5674 42.3492 58.6628 42.5409Z" fill="#263238"/>
<path d="M20.3629 21.001C19.9334 22.0529 19.5628 23.1279 19.2529 24.221L18.1528 27.551C17.7796 28.6682 17.3353 29.7604 16.8229 30.821L16.6929 31.061C16.468 31.5271 16.1966 31.9694 15.8829 32.381C15.6677 32.6386 15.4108 32.8584 15.1228 33.031C14.8647 33.1867 14.5976 33.327 14.3229 33.451C13.2529 33.951 12.1829 34.371 11.2029 34.951C10.5629 35.3123 9.99093 35.7828 9.51285 36.341C9.49767 36.0412 9.49767 35.7408 9.51285 35.441C9.93567 35.0388 10.398 34.6803 10.8929 34.371C11.8929 33.741 13.0228 33.291 14.0428 32.781C14.3028 32.661 14.5629 32.531 14.8029 32.401C14.9164 32.3432 15.0209 32.2691 15.1129 32.181C15.2139 32.11 15.3018 32.022 15.3728 31.921C15.7185 31.4838 16.0169 31.0111 16.2628 30.511C16.7828 29.511 17.2029 28.411 17.6629 27.351C18.4303 25.1804 19.332 23.0596 20.3629 21.001Z" fill="#263238"/>
<path d="M46.4029 57.0408C43.9977 58.3026 41.4042 59.1671 38.7229 59.6008L38.2929 59.6608C37.0976 59.8371 35.8912 59.9274 34.6829 59.9308C34.1729 59.9308 33.6829 59.9308 33.1529 59.8708C32.8729 59.8708 32.5929 59.8508 32.3129 59.8108C29.0517 59.5131 25.8813 58.5752 22.9829 57.0508C23.7973 55.5003 24.7161 54.0068 25.7329 52.5808C25.8405 52.4112 25.9574 52.2476 26.0829 52.0908C26.3529 51.7208 26.6329 51.3708 26.9029 51.0908C28.0149 49.6958 29.4086 48.5509 30.9929 47.7308C34.3129 46.1308 37.6129 47.0608 40.6129 49.2908C40.9418 49.6278 41.249 49.9852 41.5329 50.3608C42.5829 51.6708 44.3929 54.1508 46.4029 57.0408Z" fill="#90CAF9"/>
<path d="M37.5725 50.8611C37.5159 50.8672 37.4611 50.8846 37.4112 50.9122C37.3614 50.9398 37.3175 50.9769 37.2822 51.0216C37.2468 51.0663 37.2207 51.1175 37.2053 51.1723C37.1899 51.2272 37.1856 51.2845 37.1925 51.3411C37.1961 51.3978 37.2113 51.4532 37.2374 51.5037C37.2635 51.5542 37.2998 51.5987 37.344 51.6344C37.3882 51.6701 37.4393 51.6963 37.4941 51.7112C37.549 51.7261 37.6063 51.7295 37.6625 51.7211C37.775 51.7085 37.8779 51.6521 37.949 51.5641C38.0202 51.4761 38.0538 51.3636 38.0425 51.2511C38.0276 51.1389 37.9709 51.0364 37.8838 50.9641C37.7967 50.8918 37.6856 50.855 37.5725 50.8611ZM31.8925 51.4711H31.8325C31.7219 51.486 31.6215 51.5435 31.5524 51.6312C31.4834 51.7189 31.4511 51.83 31.4625 51.9411C31.4662 51.9968 31.4812 52.0512 31.5066 52.101C31.5321 52.1507 31.5675 52.1947 31.6105 52.2303C31.6536 52.2659 31.7035 52.2923 31.7572 52.3079C31.8108 52.3235 31.8671 52.328 31.9225 52.3211C32.0245 52.3118 32.1198 52.2664 32.1913 52.193C32.2628 52.1197 32.3058 52.0233 32.3125 51.9211V51.8511C32.2966 51.7492 32.2463 51.6559 32.1698 51.5867C32.0934 51.5175 31.9955 51.4767 31.8925 51.4711ZM26.1025 52.0811L25.7625 52.5411C25.782 52.6461 25.8399 52.7402 25.925 52.8049C26.01 52.8696 26.1161 52.9003 26.2225 52.8911C26.2796 52.8874 26.3353 52.8721 26.3863 52.8462C26.4372 52.8202 26.4823 52.7841 26.5188 52.7401C26.5554 52.6961 26.5825 52.6451 26.5986 52.5903C26.6147 52.5354 26.6195 52.4778 26.6125 52.4211C26.6045 52.3637 26.5845 52.3087 26.5537 52.2597C26.5229 52.2106 26.4821 52.1687 26.4339 52.1365C26.3857 52.1044 26.3313 52.0829 26.2742 52.0733C26.217 52.0637 26.1586 52.0664 26.1025 52.0811ZM34.2825 47.0811C34.2258 47.0846 34.1704 47.0999 34.1199 47.1259C34.0694 47.152 34.0249 47.1883 33.9892 47.2325C33.9534 47.2767 33.9273 47.3278 33.9124 47.3827C33.8974 47.4375 33.8941 47.4949 33.9025 47.5511C33.9152 47.6643 33.9712 47.7681 34.0588 47.8409C34.1465 47.9136 34.2589 47.9495 34.3725 47.9411C34.4847 47.9237 34.5863 47.8647 34.6567 47.7756C34.7272 47.6866 34.7614 47.5742 34.7525 47.4611C34.7286 47.3578 34.6674 47.267 34.5807 47.2061C34.494 47.1452 34.3878 47.1185 34.2825 47.1311V47.0811ZM38.4125 58.8011C38.356 58.8061 38.301 58.8222 38.2507 58.8486C38.2004 58.875 38.1559 58.9111 38.1196 58.9548C38.0833 58.9985 38.0561 59.0489 38.0394 59.1032C38.0228 59.1575 38.017 59.2145 38.0225 59.2711C38.0312 59.3473 38.0611 59.4196 38.1088 59.4797C38.1566 59.5398 38.2202 59.5853 38.2925 59.6111L38.7225 59.5511C38.7796 59.5091 38.8244 59.4527 38.8526 59.3877C38.8807 59.3227 38.891 59.2514 38.8825 59.1811C38.863 59.0755 38.8028 58.9817 38.715 58.92C38.6271 58.8583 38.5185 58.8336 38.4125 58.8511V58.8011ZM32.6825 59.4011C32.5889 59.4096 32.5011 59.45 32.4338 59.5155C32.3664 59.5811 32.3236 59.6677 32.3125 59.7611C32.5925 59.7611 32.8725 59.7811 33.1525 59.8211C33.1375 59.7104 33.0801 59.61 32.9924 59.541C32.9047 59.4719 32.7936 59.4397 32.6825 59.4511V59.4011ZM40.8525 54.4011C40.7401 54.4137 40.6372 54.4701 40.566 54.558C40.4949 54.646 40.4613 54.7585 40.4725 54.8711C40.4761 54.9278 40.4913 54.9832 40.5174 55.0337C40.5435 55.0842 40.5798 55.1287 40.624 55.1644C40.6682 55.2001 40.7193 55.2263 40.7741 55.2412C40.829 55.2561 40.8863 55.2595 40.9425 55.2511C40.9987 55.2461 41.0533 55.2299 41.1031 55.2034C41.1529 55.1769 41.1968 55.1406 41.2323 55.0967C41.2678 55.0529 41.2941 55.0023 41.3096 54.9481C41.3251 54.8938 41.3295 54.837 41.3225 54.7811C41.2889 54.6871 41.2236 54.6078 41.1378 54.5567C41.052 54.5056 40.9512 54.4859 40.8525 54.5011V54.4011ZM35.1125 55.0011C34.9993 55.0161 34.8963 55.0746 34.8254 55.1641C34.7544 55.2537 34.7211 55.3674 34.7325 55.4811C34.7451 55.5935 34.8015 55.6964 34.8895 55.7676C34.9775 55.8387 35.0899 55.8723 35.2025 55.8611C35.2596 55.8574 35.3153 55.8421 35.3663 55.8162C35.4172 55.7902 35.4623 55.7541 35.4988 55.7101C35.5354 55.6661 35.5625 55.6151 35.5786 55.5603C35.5947 55.5054 35.5995 55.4478 35.5925 55.3911C35.5605 55.2933 35.4944 55.2103 35.4063 55.157C35.3182 55.1038 35.214 55.084 35.1125 55.1011V55.0011ZM29.3925 55.6111C29.2793 55.6237 29.1754 55.6797 29.1027 55.7674C29.03 55.855 28.9941 55.9675 29.0025 56.0811C29.0074 56.1382 29.0239 56.1938 29.051 56.2443C29.0782 56.2948 29.1154 56.3393 29.1603 56.3749C29.2053 56.4105 29.2571 56.4365 29.3125 56.4513C29.3679 56.4661 29.4258 56.4695 29.4825 56.4611C29.595 56.4485 29.6979 56.3921 29.769 56.3041C29.8402 56.2161 29.8738 56.1036 29.8625 55.9911C29.8273 55.8982 29.7617 55.82 29.6763 55.7691C29.591 55.7183 29.491 55.6978 29.3925 55.7111V55.6111ZM23.6625 56.2111C23.606 56.2161 23.551 56.2322 23.5007 56.2586C23.4504 56.285 23.4059 56.3211 23.3696 56.3648C23.3333 56.4085 23.3061 56.4589 23.2894 56.5132C23.2728 56.5675 23.267 56.6245 23.2725 56.6811C23.2851 56.7961 23.3426 56.9016 23.4324 56.9746C23.5223 57.0476 23.6373 57.0823 23.7525 57.0711C23.8088 57.0649 23.8633 57.0475 23.9126 57.0198C23.962 56.9921 24.0053 56.9548 24.0398 56.9099C24.0744 56.8651 24.0995 56.8137 24.1138 56.7589C24.128 56.7041 24.1309 56.647 24.1225 56.5911C24.0908 56.4979 24.0274 56.4188 23.9433 56.3676C23.8592 56.3165 23.7599 56.2964 23.6625 56.3111V56.2111Z" fill="white"/>
<path d="M31.453 50.8509C31.803 51.7209 37.033 56.9009 41.123 56.0609C42.453 55.7809 41.273 48.4409 41.273 48.4409V47.8809L41.773 40.0109L31.953 35.6909L30.543 35.1309C30.543 35.1309 30.543 37.2909 30.543 39.9909C30.543 40.1109 30.543 40.2409 30.543 40.3709C30.543 40.5009 30.543 40.6609 30.543 40.8109C30.543 41.2109 30.543 41.6209 30.543 42.0309C30.543 42.4409 30.543 42.6409 30.543 42.9709C30.543 43.3009 30.543 43.6109 30.543 43.9709C30.6856 46.2826 30.9896 48.5815 31.453 50.8509Z" fill="#AD6359"/>
<path d="M30.613 39.9909C31.7178 42.0032 33.247 43.7511 35.0946 45.1136C36.9422 46.476 39.0641 47.4202 41.313 47.8809L41.813 40.0109L31.993 35.6909L30.583 35.1309C30.583 35.1309 30.583 37.2909 30.613 39.9909Z" fill="#263238"/>
<path d="M51.4829 28.191C52.9529 41.941 44.8729 44.371 41.9129 44.691C39.2129 44.971 30.0129 45.601 27.1329 32.071C24.2529 18.541 30.1829 13.501 36.3129 12.531C42.4429 11.561 50.0229 14.431 51.4829 28.191Z" fill="#AD6359"/>
<path d="M47.3327 25.2709C47.0127 25.2709 46.7127 25.2109 46.3327 25.1709C45.9944 25.1797 45.662 25.0817 45.3827 24.8909C45.3102 24.8102 45.2653 24.7086 45.2545 24.6007C45.2437 24.4928 45.2676 24.3843 45.3227 24.2909C45.4646 24.1259 45.6474 24.0011 45.8527 23.9291C46.0581 23.8572 46.2788 23.8405 46.4927 23.8809C46.936 23.897 47.3571 24.079 47.6727 24.3909C47.7415 24.4622 47.7885 24.5517 47.8082 24.6489C47.8278 24.7461 47.8193 24.8469 47.7836 24.9394C47.7478 25.0319 47.6864 25.1122 47.6065 25.171C47.5266 25.2297 47.4316 25.2643 47.3327 25.2709Z" fill="#263238"/>
<path d="M38.023 26.4509C38.343 26.3809 38.623 26.2609 38.933 26.1609C39.2673 26.0993 39.5726 25.9309 39.803 25.6809C39.8596 25.588 39.8844 25.4791 39.8736 25.3709C39.8628 25.2626 39.8169 25.1608 39.743 25.0809C39.5705 24.9474 39.3651 24.8629 39.1486 24.8365C38.9321 24.8101 38.7125 24.8427 38.513 24.9309C38.0982 25.0484 37.7419 25.3157 37.513 25.6809C37.4666 25.7642 37.444 25.8586 37.4477 25.9539C37.4513 26.0492 37.4811 26.1416 37.5337 26.2211C37.5864 26.3005 37.6599 26.364 37.7461 26.4046C37.8324 26.4451 37.9282 26.4611 38.023 26.4509Z" fill="#263238"/>
<path d="M40.2327 29.731C40.2327 29.731 40.1627 29.731 40.1727 29.821C40.3227 30.751 40.3427 31.821 39.5327 32.261C40.5627 32.031 40.5227 30.581 40.2327 29.731Z" fill="#263238"/>
<path d="M39.2726 28.8611C37.7526 28.9411 38.0326 31.9711 39.4326 31.8611C40.8326 31.7511 40.5426 28.7911 39.2726 28.8611Z" fill="#263238"/>
<path d="M38.6926 29.0709C38.4426 29.2709 38.2126 29.6009 37.8926 29.6609C37.5726 29.7209 37.2226 29.4409 36.9526 29.1509C36.9526 29.7309 37.2726 30.3109 37.9026 30.3409C38.5326 30.3709 38.8426 29.8109 38.9026 29.2209C38.9026 29.1509 38.7526 29.0009 38.6926 29.0709Z" fill="#263238"/>
<path d="M45.8926 28.9309C45.8926 28.9309 45.9726 28.9309 45.9726 29.0109C46.0226 29.9509 46.2326 31.0109 47.1126 31.2609C46.0526 31.2109 45.7526 29.7909 45.8926 28.9309Z" fill="#263238"/>
<path d="M46.6529 27.841C48.1529 27.601 48.5229 30.621 47.1329 30.841C45.7429 31.061 45.3929 28.041 46.6529 27.841Z" fill="#263238"/>
<path d="M47.3026 27.9311C47.5626 28.0611 47.8326 28.3211 48.1226 28.3111C48.4126 28.3011 48.6526 27.9311 48.8326 27.5911C48.9126 28.1611 48.8326 28.7911 48.2626 28.9711C47.6926 29.1511 47.3326 28.6811 47.1226 28.1211C47.1326 28.0811 47.1926 27.9311 47.3026 27.9311Z" fill="#263238"/>
<path d="M41.6529 37.0608C41.8829 37.2708 42.1229 37.5708 42.4729 37.5808C42.8218 37.556 43.1619 37.4607 43.4729 37.3008C43.3475 37.4926 43.1725 37.6468 42.9665 37.7471C42.7605 37.8475 42.5312 37.8902 42.3029 37.8708C42.1081 37.8303 41.9297 37.7325 41.7908 37.5899C41.6518 37.4474 41.5586 37.2667 41.5229 37.0708C41.5429 37.0608 41.6129 37.0308 41.6529 37.0608Z" fill="#263238"/>
<path d="M45.2228 33.271C45.2228 33.271 45.5528 34.651 45.6228 35.271C45.6228 35.331 45.4728 35.381 45.2528 35.421C44.6963 35.582 44.1063 35.5869 43.5473 35.4352C42.9882 35.2836 42.4816 34.9811 42.0828 34.561C42.0328 34.501 42.0828 34.431 42.1728 34.461C43.0894 34.9567 44.1418 35.1426 45.1728 34.991C45.1728 34.801 44.5228 32.641 44.6228 32.621C45.1387 32.6199 45.6528 32.6837 46.1528 32.811C45.5328 29.911 44.4528 27.141 43.8828 24.251C43.8748 24.2285 43.8762 24.2037 43.8865 24.1821C43.8968 24.1605 43.9153 24.144 43.9378 24.136C43.9603 24.128 43.9851 24.1294 44.0067 24.1397C44.0283 24.15 44.0448 24.1685 44.0528 24.191C45.295 27.1275 46.2463 30.1788 46.8928 33.301C46.9028 33.711 45.4928 33.361 45.2228 33.271Z" fill="#263238"/>
<path d="M44.8325 35.2611C44.5384 35.777 44.1187 36.2104 43.6125 36.5211C43.3283 36.6752 43.0045 36.7414 42.6825 36.7111C41.9725 36.6211 41.8725 36.0011 41.9225 35.4511C41.9525 35.158 42.0163 34.8694 42.1125 34.5911C42.9248 35.0981 43.8777 35.3328 44.8325 35.2611Z" fill="#263238"/>
<path d="M43.8125 36.401L43.6125 36.521C43.3283 36.6752 43.0045 36.7413 42.6825 36.711C41.9725 36.621 41.8725 36.001 41.9225 35.451C42.296 35.4069 42.6742 35.4734 43.0102 35.6423C43.3462 35.8112 43.6252 36.075 43.8125 36.401Z" fill="#FF9BBC"/>
<path d="M27.5427 32.3409C28.4266 31.953 29.194 31.3413 29.7692 30.5662C30.3445 29.791 30.7076 28.8793 30.8227 27.9209C42.3127 25.2409 44.6427 17.2909 44.6427 17.2909C48.1027 22.8609 50.3027 23.4809 50.8127 24.2909C50.8127 24.2909 50.6927 18.8609 48.1127 15.2909C46.6902 13.2554 44.6304 11.7514 42.2584 11.0162C39.8864 10.2811 37.3371 10.3566 35.0127 11.2309C31.5727 12.4209 29.2327 16.0909 29.2327 16.0909C29.2327 16.0909 25.4927 17.2909 24.5727 20.7009C23.0227 26.3909 27.5427 32.3409 27.5427 32.3409Z" fill="#263238"/>
<path d="M44.7525 16.791C44.6413 18.3831 44.1362 19.9226 43.2825 21.271C42.4298 22.6215 41.3226 23.7932 40.0225 24.721L39.0225 25.371C38.6725 25.571 38.3125 25.731 37.9525 25.911C37.239 26.2567 36.5002 26.5476 35.7425 26.781C34.9925 27.011 34.2125 27.161 33.4425 27.351C32.6725 27.541 31.8825 27.551 31.1025 27.621C31.8625 27.441 32.6325 27.291 33.3925 27.121C34.1525 26.951 34.9025 26.701 35.6325 26.431C37.094 25.9194 38.4799 25.2131 39.7525 24.331C41.0209 23.4526 42.1159 22.3474 42.9825 21.071C43.8696 19.7861 44.473 18.3271 44.7525 16.791Z" fill="#263238"/>
<path d="M29.4329 32.9309C29.4329 32.9309 26.3229 28.6709 24.4329 29.7909C22.5429 30.9109 24.8829 37.1109 27.2029 37.9309C27.4931 38.0539 27.8051 38.1172 28.1204 38.1171C28.4356 38.117 28.7476 38.0535 29.0377 37.9303C29.3279 37.8071 29.5904 37.6269 29.8094 37.4002C30.0285 37.1735 30.1997 36.9051 30.3129 36.6109L29.4329 32.9309Z" fill="#AD6359"/>
<path d="M25.1228 31.511C25.1228 31.511 25.0728 31.511 25.1228 31.571C25.8686 31.9256 26.5317 32.4328 27.0692 33.0598C27.6066 33.6868 28.0065 34.4197 28.2428 35.211C28.1467 35.0516 28.017 34.9152 27.8628 34.8111C27.7085 34.707 27.5334 34.6378 27.3497 34.6083C27.166 34.5787 26.9781 34.5896 26.799 34.6402C26.6199 34.6908 26.454 34.7798 26.3128 34.901C26.2628 34.901 26.3128 34.991 26.3128 34.981C26.594 34.8859 26.8976 34.8801 27.1822 34.9642C27.4669 35.0483 27.7185 35.2183 27.9028 35.451C28.2113 35.8445 28.4761 36.2704 28.6928 36.721C28.7728 36.861 29.0228 36.781 28.9728 36.611C28.9828 34.521 27.3328 31.671 25.1228 31.511Z" fill="#263238"/>
</svg>
