<svg width="76" height="76" viewBox="0 0 76 76" fill="none" xmlns="http://www.w3.org/2000/svg">
<path d="M57.4843 69.7079C54.1344 71.7954 50.4711 73.3316 46.6343 74.2579C37.4267 76.5138 27.707 75.2151 19.4146 70.621C11.1222 66.0268 4.86683 58.475 1.89667 49.4724C-1.0735 40.4697 -0.540102 30.6782 3.39044 22.0514C7.32098 13.4247 14.3597 6.5971 23.102 2.93094C31.8444 -0.735218 41.6477 -0.970352 50.5557 2.27245C59.4638 5.51524 66.8217 11.9975 71.1614 20.4259C75.501 28.8543 76.5032 38.609 73.9681 47.7437C71.433 56.8784 65.5469 64.7214 57.4843 69.7079Z" fill="#A6A6A6"/>
<path d="M65.7942 61.0979C65.8028 61.2126 65.7672 61.3262 65.6947 61.4155C65.6221 61.5048 65.5182 61.5629 65.4041 61.5779H63.5641C62.1441 56.8879 60.5641 53.1279 60.9441 54.5779C61.5452 56.8611 61.8213 59.2176 61.7642 61.5779L58.1341 61.5279C57.1341 53.3579 55.5541 47.2579 55.5841 49.1079C55.6841 56.5879 55.1541 58.9579 54.5841 61.4779C45.8241 61.3379 34.3441 61.0079 26.0541 60.5779C25.3041 56.0579 24.7041 51.1779 24.5441 51.5079C23.2941 53.9479 22.8041 57.5879 22.6441 60.3979C20.0041 60.2479 17.8941 60.0679 16.6441 59.8879C16.6441 59.8879 16.2141 56.0979 16.1841 54.8879C16.0992 51.7214 16.5661 48.5642 17.5641 45.5579C18.6954 42.6002 20.1191 39.7628 21.8141 37.0879C22.8579 35.2992 23.6934 33.3968 24.3041 31.4179C24.725 29.9684 25.026 28.4867 25.2041 26.9879C25.8541 21.5079 28.9841 16.9879 33.8841 15.7979C43.4541 7.19789 52.4142 11.6779 54.8242 18.9179C55.0642 19.6279 55.2841 20.4279 55.4941 21.3079C56.2741 24.5479 56.9141 28.7379 57.4941 31.9779C57.723 33.2481 58.0268 34.5036 58.4041 35.7379C60.4741 41.6379 65.5642 45.2479 65.7942 61.0979Z" fill="#263238"/>
<path d="M31.7044 17.0979C30.0982 17.7991 28.7012 18.9047 27.6496 20.3068C26.5981 21.7089 25.9278 23.3596 25.7044 25.0979C25.4481 27.4089 24.9073 29.6794 24.0944 31.8579C23.0739 33.9687 21.7461 35.9165 20.1544 37.6379C17.6838 40.3055 16.0709 43.6533 15.5244 47.2479C14.8659 51.4192 15.0289 55.6791 16.0044 59.7879C15.2447 55.4808 15.316 51.0682 16.2144 46.7879C17.1144 42.4779 19.5544 39.8879 22.0744 36.7279C24.1018 34.2208 25.4424 31.2296 25.9644 28.0479C26.3044 26.0479 26.3744 24.0479 27.2144 22.1879C28.269 20.2127 29.8924 18.5997 31.8744 17.5579C32.1544 17.3479 31.9544 16.9579 31.7044 17.0979Z" fill="#263238"/>
<path d="M63.4645 42.2478C61.3845 38.9778 59.1745 36.1578 58.0545 32.1978C57.0545 28.5878 56.5345 24.8178 55.4845 21.1978C55.4845 21.1378 55.3845 21.1978 55.4045 21.1978C56.9745 27.5878 57.0345 33.9278 60.5545 39.4478C62.4645 42.4478 64.3845 45.2278 65.5545 48.7478C66.7485 52.4456 67.28 56.3252 67.1245 60.2078C67.1245 60.3478 67.2945 60.3578 67.3045 60.2078C68.1711 53.956 66.8118 47.5986 63.4645 42.2478Z" fill="#263238"/>
<path d="M61.0345 67.2079C60.3845 67.7379 59.7145 68.2079 59.0345 68.6979C58.5345 69.0479 58.0345 69.3879 57.4944 69.6979L57.3944 69.7579C56.9044 70.0679 56.3945 70.3579 55.8845 70.6379L55.2145 71.0079C53.716 71.814 52.1621 72.5124 50.5645 73.0979C50.1911 73.2379 49.8111 73.3679 49.4244 73.4879C48.5344 73.7779 47.6145 74.0379 46.6845 74.2679L45.9345 74.4379C45.7945 74.1679 45.6445 73.9079 45.5145 73.6479C45.4467 73.5388 45.3866 73.4252 45.3344 73.3079C44.9944 72.6779 44.6644 72.0679 44.3344 71.4779C44.2687 71.3677 44.2087 71.2542 44.1545 71.1379C43.8245 70.5079 43.5145 69.8979 43.2245 69.3179C43.1645 69.2079 43.1045 69.0979 43.0545 68.9879C42.7245 68.3379 42.4245 67.7179 42.1445 67.1379C42.0845 67.0279 42.0345 66.9179 41.9845 66.8079C41.6711 66.1412 41.3911 65.5312 41.1445 64.9779C41.0945 64.8679 41.0445 64.7579 41.0045 64.6479V64.5379C40.7945 64.0479 40.5545 63.4679 40.3045 62.8079C40.3045 62.6979 40.2145 62.5779 40.1645 62.4579C40.0045 62.0579 39.8445 61.6279 39.6945 61.1779C39.6245 60.9979 39.5545 60.8179 39.4945 60.6279L39.3745 60.2879C39.1745 59.6879 38.9645 59.0679 38.7745 58.4379C38.7745 58.3279 38.7145 58.2179 38.6745 58.0979C38.4945 57.4779 38.3245 56.8579 38.1845 56.2479C38.1845 56.1379 38.1245 56.0279 38.1045 55.9179V55.7879C37.9667 55.2174 37.8599 54.6399 37.7845 54.0579C37.7581 53.9462 37.7413 53.8324 37.7345 53.7179C37.636 53.1031 37.5991 52.48 37.6245 51.8579C37.6142 51.7448 37.6142 51.631 37.6245 51.5179C37.6279 50.8307 37.8484 50.1622 38.2545 49.6079C38.3638 49.4737 38.4918 49.3559 38.6345 49.2579L38.8045 49.1779L38.9945 49.0979H39.0545H39.1045C39.5496 49.004 40.0094 49.004 40.4545 49.0979L40.8145 49.1979C40.9878 49.244 41.1581 49.3008 41.3245 49.3679C42.2911 49.754 43.2131 50.2435 44.0745 50.8279C44.5845 51.1479 45.1345 51.5179 45.7145 51.9479C48.9466 54.5788 51.9753 57.4503 54.7744 60.5379C56.8144 62.6179 58.9445 64.9179 61.0345 67.2079Z" fill="#EB9481"/>
<path d="M62.2245 66.2479C61.8345 66.5779 61.4445 66.8979 61.0345 67.2479C60.3845 67.7779 59.7145 68.2479 59.0345 68.7379C58.5345 69.0879 58.0345 69.4279 57.4945 69.7379L57.3945 69.7979C56.9045 70.1079 56.3945 70.3979 55.8845 70.6779L55.2145 71.0479C53.7149 71.8403 52.161 72.5254 50.5645 73.0979C50.1911 73.2379 49.8111 73.3679 49.4245 73.4879C48.5345 73.7779 47.6145 74.0379 46.6845 74.2679L45.9345 74.4379L45.2745 74.5779C45.1145 74.2779 44.9645 73.9779 44.8145 73.6779C44.7726 73.574 44.7224 73.4737 44.6645 73.3779L44.2345 72.5079L43.7545 71.5079C43.6945 71.3979 43.6445 71.2879 43.5945 71.1779C43.2945 70.5579 42.9945 69.9479 42.7145 69.3479L42.5645 69.0179L41.7745 67.3479C41.7502 67.2997 41.7301 67.2495 41.7145 67.1979L41.5645 66.8679C41.2745 66.2379 40.9945 65.6279 40.7345 65.0379L40.5845 64.7079L40.2845 64.0379L39.7945 62.8679C39.7945 62.7579 39.7045 62.6379 39.6545 62.5279C39.5045 62.1679 39.3645 61.8279 39.2345 61.5279L39.1745 61.3779C39.1745 61.3779 39.1745 61.2779 39.1245 61.2279C39.1245 61.1179 39.0345 61.0079 38.9945 60.9079L38.9345 60.7179C38.8845 60.6079 38.8445 60.4979 38.8045 60.3879V60.3079C38.5745 59.6879 38.3645 59.0979 38.1945 58.5379C38.1945 58.5379 38.1345 58.3379 38.0945 58.2379C37.8945 57.5879 37.7245 56.9679 37.5945 56.3879C37.5945 56.2779 37.5945 56.1679 37.5245 56.0579C37.4545 55.7479 37.3945 55.4579 37.3545 55.1679C37.3545 54.9579 37.2845 54.7579 37.2545 54.5579C37.2594 54.498 37.2594 54.4378 37.2545 54.3779C37.2545 54.3179 37.2545 54.2579 37.2545 54.1979C37.2446 54.0881 37.2446 53.9777 37.2545 53.8679C37.2593 53.8113 37.2593 53.7544 37.2545 53.6979C37.2545 53.6479 37.2545 53.5879 37.2545 53.5379C37.2545 53.4879 37.2545 53.2279 37.2545 53.0779C37.2559 52.7168 37.2793 52.3561 37.3245 51.9979C37.3245 51.8779 37.3245 51.7579 37.3845 51.6579C37.4939 50.9605 37.811 50.3123 38.2945 49.7979L38.3645 49.7379C38.5075 49.5951 38.673 49.4768 38.8545 49.3879L39.0245 49.3079L39.2145 49.2279H39.3145H39.3645C39.5187 49.184 39.6757 49.1506 39.8345 49.1279C40.0774 49.1073 40.3216 49.1073 40.5645 49.1279C41.2495 49.2044 41.9217 49.3691 42.5645 49.6179C43.176 49.8422 43.7679 50.1165 44.3345 50.4379C46.2277 51.4859 48.0015 52.7366 49.6245 54.1679C51.3245 55.6179 53.1745 57.3479 55.0945 59.1679C57.4345 61.2779 59.8645 63.7779 62.2245 66.2479Z" fill="#FFC727"/>
<path opacity="0.1" d="M59.0244 68.6979C58.5244 69.0479 58.0244 69.3879 57.4844 69.6979L57.3844 69.7579C56.8944 70.0679 56.3844 70.3579 55.8744 70.6379L55.2044 71.0079C53.7092 71.8135 52.1586 72.512 50.5644 73.0979C50.191 73.2379 49.811 73.3679 49.4244 73.4879C48.5344 73.7779 47.6144 74.0379 46.6844 74.2679L45.9344 74.4379L45.2744 74.5779C45.1144 74.2779 44.9644 73.9779 44.8144 73.6779C44.7644 73.5779 44.7144 73.4779 44.6544 73.3779L44.2244 72.5079C44.0644 72.1779 43.8944 71.8579 43.7344 71.5079C43.6844 71.3979 43.6344 71.2879 43.5744 71.1779C43.2744 70.5579 42.9744 69.9479 42.6944 69.3479L42.5444 69.0179L41.7544 67.3479L41.6844 67.1979L41.5344 66.8679C41.2444 66.2379 40.9644 65.6279 40.7044 65.0379L40.5544 64.7079L40.2544 64.0379L39.7544 62.8679C39.7544 62.7579 39.6644 62.6379 39.6144 62.5279C39.4644 62.1679 39.3244 61.8279 39.1944 61.5279L39.1344 61.3779C39.1059 61.3317 39.0856 61.281 39.0744 61.2279C39.0744 61.1179 38.9844 61.0079 38.9444 60.9079L38.8744 60.7279C38.8744 60.6079 38.7844 60.4979 38.7444 60.3879V60.3079C38.5144 59.6879 38.3044 59.0979 38.1344 58.5379C38.0953 58.4408 38.0651 58.3404 38.0444 58.2379C37.8444 57.5879 37.6744 56.9679 37.5444 56.3879C37.5444 56.2779 37.5444 56.1679 37.4744 56.0579C37.4044 55.7479 37.3444 55.4579 37.3044 55.1679C37.3044 54.9579 37.2344 54.7579 37.2044 54.5579C37.2093 54.498 37.2093 54.4378 37.2044 54.3779C37.1995 54.318 37.1995 54.2578 37.2044 54.1979V53.8679C37.1995 53.8113 37.1995 53.7544 37.2044 53.6979C37.2044 53.6479 37.2044 53.5879 37.2044 53.5379C37.2044 53.4879 37.2044 53.2279 37.2044 53.0779C37.2058 52.7168 37.2292 52.3561 37.2744 51.9979C37.2744 51.8779 37.2744 51.7579 37.3344 51.6579C37.4438 50.9605 37.7609 50.3122 38.2444 49.7979L38.3144 49.7379C38.4626 49.6013 38.6272 49.4838 38.8044 49.3879L38.9744 49.3079L39.2244 49.2179H39.2744C39.4286 49.174 39.5856 49.1406 39.7444 49.1179C39.9873 49.0973 40.2315 49.0973 40.4744 49.1179L40.6244 49.2779L40.7344 49.3879L41.0444 49.7179L42.7444 51.5279L43.0644 51.8579L44.3544 53.2279L44.7544 53.6379L45.0644 53.9679L46.7744 55.7779L47.0744 56.0979L48.7744 57.8979L49.0844 58.2279L50.2744 59.4779L52.3744 61.7079L59.0244 68.6979Z" fill="black"/>
<path d="M57.3842 69.7679C56.8942 70.0779 56.3841 70.3679 55.8741 70.6479L55.2042 71.0179C53.7087 71.8201 52.1581 72.5152 50.5641 73.0979C50.1908 73.2379 49.8108 73.3679 49.4241 73.4879C48.5341 73.7779 47.6141 74.0379 46.6841 74.2679L45.9341 74.4379L45.2741 74.5779C39.9082 75.6885 34.3634 75.6031 29.0341 74.3279L27.8941 74.0379C27.4142 73.9079 26.9442 73.7679 26.4742 73.6179C26.3745 73.5985 26.2773 73.5683 26.1841 73.5279L25.9442 73.4479C25.9184 73.4579 25.8899 73.4579 25.8642 73.4479C24.8642 73.1379 23.9641 72.7779 23.0441 72.3879L22.3241 72.0679C21.1744 71.5547 20.0528 70.9805 18.9641 70.3479L18.4442 70.0379L17.9442 69.7379C17.3642 69.3779 16.8041 69.0079 16.2441 68.6179L16.3941 68.2279C16.4441 68.1179 16.4841 68.0079 16.5341 67.8879C16.7841 67.2479 17.0442 66.6079 17.3042 65.9879C17.3447 65.8721 17.3915 65.7586 17.4442 65.6479C17.7042 64.9979 17.9841 64.3579 18.2641 63.7379C18.3141 63.6179 18.3641 63.5079 18.4241 63.3879C18.7141 62.7379 19.0141 62.0979 19.3141 61.4879C19.3648 61.3684 19.4215 61.2515 19.4841 61.1379L19.9041 60.3079C20.0941 59.9379 20.2842 59.5679 20.4742 59.2179C20.4704 59.188 20.4704 59.1578 20.4742 59.1279C20.487 59.0959 20.5038 59.0657 20.5242 59.0379L20.6241 58.8679C20.9741 58.2079 21.3441 57.5679 21.7141 56.9679C21.7802 56.8468 21.8537 56.7299 21.9341 56.6179C22.3541 55.9279 22.7842 55.2879 23.2242 54.6779C23.2985 54.5582 23.3821 54.4445 23.4742 54.3379C23.7642 53.9479 24.0641 53.5679 24.3741 53.2179C24.4925 53.0642 24.6194 52.9173 24.7542 52.7779C24.8529 52.6573 24.9598 52.5437 25.0741 52.4379L25.2441 52.2579L25.4142 52.0879C26.0465 51.4285 26.7359 50.8261 27.4742 50.2879C27.5508 50.2191 27.6346 50.1588 27.7242 50.1079C27.8043 50.0389 27.8914 49.9786 27.9841 49.9279L28.2542 49.7579C29.9357 48.6243 31.8681 47.9173 33.8842 47.6979C36.1804 47.4309 38.5044 47.8484 40.5641 48.8979C40.7141 48.9779 40.8642 49.0479 41.0042 49.1379C41.0907 49.1785 41.1743 49.2253 41.2542 49.2779H41.3141C41.3911 49.3186 41.4646 49.3655 41.5341 49.4179C42.0727 49.7516 42.5872 50.1225 43.0741 50.5279C43.3069 50.7386 43.5241 50.9659 43.7242 51.2079L43.8641 51.3679L44.0042 51.5279C44.4242 51.9979 44.9142 52.5879 45.5042 53.3179L45.6241 53.4679L45.7542 53.6379L47.1942 55.4579L47.4442 55.7779C47.8942 56.3579 48.3541 56.9579 48.8341 57.5979C48.8697 57.6575 48.9099 57.7144 48.9542 57.7679L49.0742 57.9279C49.3942 58.3379 49.7042 58.7579 50.0742 59.1879L50.4842 59.7479C50.5542 59.8579 50.6441 59.9679 50.7242 60.0779C51.0542 60.5179 51.3742 60.9579 51.7242 61.4079L52.0742 61.8879L52.2141 62.0779C52.6841 62.7279 53.1441 63.3779 53.6141 64.0779C53.6516 64.145 53.6951 64.2086 53.7441 64.2679L53.8341 64.3979C54.2841 65.0579 54.7441 65.7179 55.1841 66.3979C55.6241 67.0779 56.0842 67.7379 56.5042 68.3979L56.6141 68.5579L56.7141 68.7279C56.9641 69.0979 57.1742 69.4379 57.3842 69.7679Z" fill="#FFC727"/>
<path opacity="0.1" d="M35.5642 51.5879H35.1442C35.1442 51.6979 35.1442 51.8079 35.1442 51.9279H35.5742L37.0442 51.8679C37.0442 51.7479 37.0442 51.6278 37.1042 51.5278L35.5642 51.5879ZM36.9842 53.7379H35.9142C36.0075 53.8445 36.1075 53.9545 36.2142 54.0679H37.0142L36.9842 53.7379ZM35.5642 51.5879H35.1442C35.1442 51.6979 35.1442 51.8079 35.1442 51.9279H35.5742L37.0442 51.8679C37.0442 51.7479 37.0442 51.6278 37.1042 51.5278L35.5642 51.5879ZM35.5642 51.5879H35.1442C35.1442 51.6979 35.1442 51.8079 35.1442 51.9279H35.5742L37.0442 51.8679C37.0442 51.7479 37.0442 51.6278 37.1042 51.5278L35.5642 51.5879ZM35.5642 51.5879H35.1442C35.1442 51.6979 35.1442 51.8079 35.1442 51.9279H35.5742L37.0442 51.8679C37.0442 51.7479 37.0442 51.6278 37.1042 51.5278L35.5642 51.5879ZM41.3542 49.3179H41.2942L41.0642 49.1779H40.5642L38.5642 49.2579L35.2642 49.3979H34.8242L33.5742 49.4579L28.9642 49.6479H28.3742H28.3042L28.0342 49.8179C27.9415 49.8686 27.8543 49.9289 27.7742 49.9978H28.3742L33.4942 49.7879L34.9242 49.7279H35.3542L38.0342 49.6179H38.1542L40.8642 49.5079H41.5442C41.483 49.439 41.4161 49.3755 41.3442 49.3179H41.3542ZM35.1442 51.6078C35.1442 51.7178 35.1442 51.8279 35.1442 51.9479H35.5742L37.0442 51.8878C37.0442 51.7678 37.0442 51.6479 37.1042 51.5479L35.5842 51.6078H35.1442ZM35.5642 51.6078H35.1442C35.1442 51.7178 35.1442 51.8279 35.1442 51.9479H35.5742L37.0442 51.8878C37.0442 51.7678 37.0442 51.6479 37.1042 51.5479L35.5642 51.6078ZM35.5642 51.6078H35.1442C35.1442 51.7178 35.1442 51.8279 35.1442 51.9479H35.5742L37.0442 51.8878C37.0442 51.7678 37.0442 51.6479 37.1042 51.5479L35.5642 51.6078ZM35.5642 51.6078H35.1442C35.1442 51.7178 35.1442 51.8279 35.1442 51.9479H35.5742L37.0442 51.8878C37.0442 51.7678 37.0442 51.6479 37.1042 51.5479L35.5642 51.6078ZM36.9842 53.7579H35.9142C36.0075 53.8645 36.1075 53.9745 36.2142 54.0879H37.0142L36.9842 53.7579ZM43.9142 51.4279L43.7742 51.2679H42.5942L37.5942 51.4779H37.1242L35.6042 51.5379H35.1842H34.3242L25.7942 51.8979H25.5142L25.3442 52.0679L25.1742 52.2478H25.3742L34.5542 51.8679H35.1742H35.6042L37.0742 51.8079H37.5842L42.9642 51.5879L44.1042 51.5379L43.9142 51.4279ZM34.1842 56.0979L25.3642 56.4678C25.3642 56.5778 25.3642 56.6879 25.3642 56.8079L34.0242 56.4379H34.6642C34.6642 56.3279 34.7242 56.2079 34.7642 56.0979H34.1842ZM34.1842 56.0979L25.3642 56.4678C25.3642 56.5778 25.3642 56.6879 25.3642 56.8079L34.0242 56.4379H34.6642C34.6642 56.3279 34.7242 56.2079 34.7642 56.0979H34.1842ZM34.1842 56.0979L25.3642 56.4678C25.3642 56.5778 25.3642 56.6879 25.3642 56.8079L34.0242 56.4379H34.6642C34.6642 56.3279 34.7242 56.2079 34.7642 56.0979H34.1842ZM34.1842 56.0979L25.3642 56.4678C25.3642 56.5778 25.3642 56.6879 25.3642 56.8079L34.0242 56.4379H34.6642C34.6642 56.3279 34.7242 56.2079 34.7642 56.0979H34.1842ZM45.6842 53.5679L45.5742 53.4179H44.5742H44.2042L37.6142 53.6879H36.9642H35.8942H35.3042H34.7942L25.0242 54.0979L23.4942 54.1579C23.4021 54.2645 23.3185 54.3782 23.2442 54.4978H23.4242L25.0942 54.4279L34.7442 54.0379H35.2642H36.2142H37.0142H37.6842L44.2242 53.7679H44.9042H45.8142C45.7622 53.6964 45.7185 53.6193 45.6842 53.5379V53.5679ZM25.3642 56.4678C25.3642 56.5778 25.3642 56.6879 25.3642 56.8079L34.0242 56.4379H34.6642C34.6642 56.3279 34.7242 56.2079 34.7642 56.0979H34.1342L25.3642 56.4678ZM34.1842 56.0979L25.3642 56.4678C25.3642 56.5778 25.3642 56.6879 25.3642 56.8079L34.0242 56.4379H34.6642C34.6642 56.3279 34.7242 56.2079 34.7642 56.0979H34.1842ZM34.1842 56.0979L25.3642 56.4678C25.3642 56.5778 25.3642 56.6879 25.3642 56.8079L34.0242 56.4379H34.6642C34.6642 56.3279 34.7242 56.2079 34.7642 56.0979H34.1842ZM34.1842 56.0979L25.3642 56.4678C25.3642 56.5778 25.3642 56.6879 25.3642 56.8079L34.0242 56.4379H34.6642C34.6642 56.3279 34.7242 56.2079 34.7642 56.0979H34.1842ZM47.2642 55.5579H46.6142L44.1342 55.6579L38.1342 55.9079H37.9942H37.2742L34.7742 56.0179H34.1442L25.3242 56.3878L22.9942 56.4779H21.9042C21.8238 56.5899 21.7503 56.7068 21.6842 56.8279L22.9342 56.7778L25.3742 56.6779L34.0342 56.3079H34.6742L37.3442 56.1879H38.0742H38.5642L44.0242 55.9579L46.8642 55.8479H47.4642C47.3925 55.7444 47.3258 55.6376 47.2642 55.5278V55.5579ZM49.0342 57.8679C48.9899 57.8143 48.9498 57.7575 48.9142 57.6979H48.6142L38.5642 58.0979H37.8542L34.0942 58.2579H33.3442L25.6642 58.5679L22.7142 58.6879L20.6042 58.7778C20.5735 58.8325 20.5467 58.8893 20.5242 58.9479C20.4742 59.0379 20.4742 59.0379 20.4242 59.1279L22.6942 59.0379L25.6942 58.9079L33.1942 58.5979H33.9442L37.9442 58.4379H38.6442L48.8642 58.0179H49.0942L49.0342 57.8679ZM50.5242 59.8679L39.3042 60.3279H38.6542L33.2342 60.5479H32.4342L28.3242 60.7178H28.2642L19.4542 61.0779C19.3916 61.1915 19.3348 61.3083 19.2842 61.4279L32.2842 60.8878H33.0642L38.7642 60.6579H39.4042L50.7442 60.1879C50.6842 60.0379 50.5642 59.9279 50.5642 59.8179L50.5242 59.8679ZM52.2242 62.1979L52.0842 62.0079L40.0842 62.4978H39.5042L32.1442 62.7979H31.3842L18.3842 63.3379C18.3242 63.4579 18.2742 63.5679 18.2242 63.6879L31.2242 63.1579H31.9742L39.6542 62.8379H40.2242L52.3042 62.3379L52.2242 62.1979ZM53.7542 64.3578C53.7052 64.2986 53.6617 64.235 53.6242 64.1679L40.9842 64.6879H40.4542L30.9942 65.0779H30.9042H30.2942L17.4042 65.6078C17.3515 65.7186 17.3048 65.8321 17.2642 65.9479L30.1442 65.4179H30.7142H30.8342L40.6142 65.0179H41.1342L53.8542 64.4879C53.8114 64.4336 53.7776 64.3729 53.7542 64.3079V64.3578ZM55.2042 66.4678L55.0842 66.3079L41.9642 66.8479H41.4342L29.8542 67.3279H29.5642H29.1342L16.4442 67.8479C16.4442 67.9679 16.3542 68.0779 16.3042 68.1879L28.9542 67.6679H29.3542H29.6342L41.5442 67.1779H42.0742L55.2542 66.6378L55.2042 66.4678ZM56.6342 68.6279L56.5242 68.4678L43.0342 69.0278H42.4642L29.2742 69.5779H27.9842L18.4042 69.9779L18.9242 70.2879L27.7942 69.9179H28.9442L42.6242 69.3479H43.2042L56.7342 68.7879L56.6342 68.6279ZM42.4642 69.0479L29.2742 69.5979H28.4542L28.2542 69.9379H28.9442L42.6242 69.3679L42.4642 69.0479ZM44.1342 71.1779H43.5142L27.4642 71.8379H26.7342L22.2842 72.0179L23.0042 72.3379L26.5342 72.1879H26.9242H27.2642L43.6742 71.5079H44.3142L55.2042 71.0579L55.8742 70.6879L44.1342 71.1779ZM28.6442 69.9579H28.9342L42.6142 69.3878L42.4642 69.0579L29.2742 69.6078H28.4542L28.2542 69.9479H28.6542L28.6442 69.9579ZM42.4642 69.0479L29.2742 69.5979H28.4542L28.2542 69.9379H28.9442L42.6242 69.3679L42.4642 69.0479ZM45.2842 73.3479H44.5942L27.8542 74.0479L28.9942 74.3379L44.7642 73.6879H45.4642L49.3742 73.5278C49.7609 73.4078 50.1409 73.2778 50.5142 73.1378L45.2842 73.3479ZM43.5042 71.2079L27.4542 71.8679C27.3842 71.9879 27.3242 72.1078 27.2542 72.2178L43.6642 71.5379C43.6142 71.3779 43.5642 71.2679 43.5042 71.1579V71.2079ZM45.2842 73.3479H44.5942L27.8542 74.0479L28.9942 74.3379L44.7642 73.6879H45.4642C45.3943 73.5627 45.3341 73.4323 45.2842 73.2979V73.3479ZM43.5042 71.2079L27.4542 71.8679C27.3842 71.9879 27.3242 72.1078 27.2542 72.2178L43.6642 71.5379C43.6142 71.3779 43.5642 71.2679 43.5042 71.1579V71.2079ZM45.2842 73.3479H44.5942L27.8542 74.0479L28.9942 74.3379L44.7642 73.6879H45.4642C45.3943 73.5627 45.3341 73.4323 45.2842 73.2979V73.3479Z" fill="black"/>
<path d="M35.1342 51.6078C35.1342 51.7178 35.1342 51.8279 35.1342 51.9479C35.1144 52.1995 35.081 52.4498 35.0342 52.6979C34.9839 53.0779 34.9138 53.4551 34.8242 53.8279C34.8242 53.9379 34.7742 54.0479 34.7542 54.1679C34.6042 54.7579 34.4242 55.3879 34.2042 56.0679C34.2042 56.1779 34.1342 56.2879 34.0942 56.4079C33.8942 57.0079 33.6642 57.6379 33.3942 58.3079L33.2642 58.6479C33.0142 59.2579 32.7442 59.8979 32.4442 60.5679L32.2942 60.9079V60.9779C32.0142 61.6079 31.7242 62.2179 31.4442 62.8079C31.3942 62.9279 31.3342 63.0479 31.2742 63.1679C30.9642 63.8279 30.6642 64.4578 30.3442 65.0779C30.2991 65.1949 30.2457 65.3085 30.1842 65.4179C29.8642 66.0779 29.5442 66.7178 29.1842 67.3279L29.0042 67.6679C28.6642 68.3379 28.3142 68.9779 28.0042 69.5979C27.9468 69.7144 27.8834 69.8279 27.8142 69.9379C27.4542 70.6079 27.1042 71.2479 26.7542 71.8479L26.5542 72.1979C26.3142 72.6179 26.0842 73.0179 25.8442 73.4079C24.8442 73.0979 23.9442 72.7379 23.0242 72.3479L22.3042 72.0278C21.1544 71.5146 20.0328 70.9405 18.9442 70.3079L18.4242 69.9978L17.9242 69.6979C17.3442 69.3379 16.7842 68.9678 16.2242 68.5779C14.9354 67.6934 13.7092 66.7211 12.5542 65.6679C14.2042 63.7379 15.8842 61.8579 17.5542 60.0479C19.2242 58.2379 21.1642 56.2578 22.9442 54.5278L23.6442 53.8679C23.9142 53.6079 24.1742 53.3678 24.4342 53.1378L24.8242 52.7879L25.3342 52.3479L25.7542 51.9978C26.6023 51.2813 27.4904 50.6136 28.4142 49.9978L28.9742 49.6479C31.0742 48.3679 32.7342 47.9278 33.8042 48.3578C34.255 48.5483 34.6137 48.9071 34.8042 49.3578C34.8595 49.4628 34.9031 49.5734 34.9342 49.6879C35.1176 50.3103 35.1854 50.961 35.1342 51.6078Z" fill="#EB9481"/>
<path d="M35.5645 51.5878C35.5645 51.6978 35.5645 51.8178 35.5645 51.9278C35.5455 52.3566 35.5021 52.784 35.4345 53.2078C35.4345 53.4078 35.3745 53.6078 35.3345 53.8078L35.2745 54.1478C35.1445 54.7978 34.9945 55.4478 34.8345 56.0478C34.8345 56.1578 34.7645 56.2778 34.7345 56.3878C34.5245 57.1278 34.3145 57.7878 34.1445 58.2778C34.0945 58.3978 34.0545 58.5178 34.0145 58.6178C33.9745 58.7178 33.8745 59.0278 33.8345 59.1278C33.6745 59.5478 33.4845 60.0178 33.2445 60.5278C33.2445 60.6378 33.1445 60.7578 33.0945 60.8778V60.9378C32.8345 61.5178 32.5345 62.1278 32.2045 62.7778L32.0245 63.1378C31.7345 63.7078 31.4245 64.2978 31.1045 64.9078C31.072 64.9509 31.0452 64.998 31.0245 65.0478C30.9553 65.1578 30.8919 65.2712 30.8345 65.3878L29.7845 67.2978L29.5945 67.6478L28.4945 69.5778L28.2945 69.9178C27.9245 70.5678 27.5445 71.2078 27.1745 71.8278L26.9645 72.1878C26.6945 72.6378 26.4345 73.0878 26.1845 73.5178L25.9445 73.4378C25.9188 73.4479 25.8902 73.4479 25.8645 73.4378C24.8645 73.1278 23.9645 72.7678 23.0445 72.3778L22.3245 72.0578C21.1747 71.5446 20.0532 70.9705 18.9645 70.3378L18.4445 70.0278L17.9445 69.7278C17.3645 69.3678 16.8045 68.9978 16.2445 68.6078C14.9557 67.7233 13.7295 66.751 12.5745 65.6978C12.3345 65.4978 12.1045 65.2778 11.8745 65.0578C13.4545 63.1978 15.0445 61.4278 16.6045 59.7778C18.9292 57.2812 21.418 54.9426 24.0545 52.7778L24.7445 52.2378C25.2645 51.8378 25.7445 51.4678 26.2545 51.1278C26.7645 50.7878 27.1445 50.5178 27.5645 50.2678L27.8445 50.0878L28.4145 49.7378C31.0545 48.1878 32.7845 47.7378 33.8945 48.0978C34.2224 48.1895 34.5227 48.3607 34.7686 48.5962C35.0146 48.8317 35.1987 49.1242 35.3045 49.4478C35.3545 49.5578 35.3845 49.6678 35.4245 49.7778C35.5603 50.3709 35.6075 50.9809 35.5645 51.5878Z" fill="#FFC727"/>
<path d="M33.4941 50.0978C33.4941 51.0978 37.9141 57.7178 42.6441 57.7178C45.1142 57.7178 43.9742 51.1078 43.9742 51.1078L44.2042 50.5678L47.4041 43.0178L39.2341 35.3878L38.0441 34.3878C38.0441 34.3878 37.3041 36.5078 36.4041 39.1678L36.2841 39.5378C36.2241 39.6878 36.1741 39.8278 36.1241 39.9678C35.9941 40.3678 35.8541 40.7678 35.7141 41.1778C35.5741 41.5878 35.5141 41.7778 35.4241 42.1078L35.1241 43.1078C34.4187 45.397 33.874 47.7327 33.4941 50.0978Z" fill="#EB9481"/>
<path d="M36.4043 39.0979C36.7949 41.4557 37.6951 43.7 39.0423 45.6741C40.3894 47.6482 42.1511 49.3047 44.2043 50.5279L47.4043 42.9779L39.2343 35.3479L38.0443 34.3479C38.0443 34.3479 37.3043 36.4279 36.4043 39.0979Z" fill="#263238"/>
<path d="M58.0445 28.0979C60.6745 42.2579 52.4945 45.4379 49.4345 45.9979C46.6645 46.5079 37.1545 47.8979 33.0745 34.0879C28.9945 20.2779 34.7445 14.5779 41.0745 13.0879C47.4045 11.5979 55.4145 13.9179 58.0445 28.0979Z" fill="#EB9481"/>
<path d="M53.2345 25.5279C52.9045 25.5279 52.5845 25.5279 52.2345 25.5279C51.8916 25.5842 51.5396 25.5244 51.2345 25.3579C51.1473 25.2881 51.0853 25.1916 51.0582 25.0832C51.0311 24.9748 51.0403 24.8605 51.0845 24.7579C51.2071 24.5675 51.3783 24.4133 51.5805 24.3113C51.7827 24.2093 52.0085 24.1633 52.2345 24.1779C52.6974 24.1339 53.1602 24.2621 53.5345 24.5379C53.6251 24.6055 53.6927 24.6995 53.728 24.8069C53.7634 24.9143 53.7647 25.03 53.7319 25.1382C53.6991 25.2464 53.6338 25.3419 53.5448 25.4116C53.4558 25.4813 53.3474 25.5219 53.2345 25.5279Z" fill="#263238"/>
<path d="M43.904 27.8578C44.214 27.7378 44.494 27.5778 44.794 27.4278C45.1348 27.3249 45.4307 27.11 45.634 26.8178C45.6807 26.714 45.6913 26.5975 45.6641 26.487C45.6369 26.3765 45.5735 26.2782 45.484 26.2078C45.2886 26.0926 45.0659 26.0319 44.839 26.0319C44.6122 26.0319 44.3895 26.0926 44.194 26.2078C43.7599 26.3775 43.4038 26.7016 43.194 27.1178C43.1472 27.2184 43.1318 27.3307 43.15 27.4401C43.1681 27.5495 43.2189 27.6509 43.2957 27.7309C43.3725 27.8109 43.4717 27.8659 43.5802 27.8885C43.6888 27.9112 43.8017 27.9005 43.904 27.8578Z" fill="#263238"/>
<path d="M46.7545 30.9178C46.7545 30.9178 46.6945 30.9778 46.7045 31.0178C46.9845 31.9578 47.1445 33.0778 46.3745 33.6278C46.3745 33.6278 46.3745 33.6878 46.3745 33.6778C47.4045 33.2478 47.1645 31.7578 46.7545 30.9178Z" fill="#263238"/>
<path d="M45.6443 30.1478C44.0843 30.4378 44.7744 33.5278 46.2144 33.2578C47.6544 32.9878 46.9443 29.9078 45.6443 30.1478Z" fill="#263238"/>
<path d="M45.0745 30.4479C44.8445 30.6779 44.6445 31.0479 44.3245 31.1579C44.0045 31.2679 43.6045 31.0179 43.3245 30.7579C43.3245 30.7579 43.2745 30.7579 43.3245 30.8079C43.4445 31.3979 43.8145 31.9579 44.4645 31.9079C45.1145 31.8579 45.3645 31.2379 45.3745 30.6079C45.2945 30.4979 45.1645 30.3479 45.0745 30.4479Z" fill="#263238"/>
<path d="M52.2241 29.4679C52.2241 29.4679 52.3141 29.4679 52.3241 29.5379C52.4941 30.5379 52.8641 31.5379 53.7941 31.7079V31.7679C52.7041 31.8379 52.2441 30.4079 52.2241 29.4679Z" fill="#263238"/>
<path d="M52.8642 28.2778C54.3842 27.8278 55.1742 30.8978 53.7642 31.2778C52.3542 31.6578 51.5642 28.6578 52.8642 28.2778Z" fill="#263238"/>
<path d="M53.5641 28.3178C53.8441 28.4178 54.1642 28.6478 54.4542 28.5978C54.7442 28.5478 54.9541 28.1378 55.0941 27.7678C55.0941 27.7678 55.0941 27.7678 55.1441 27.7678C55.3141 28.3478 55.2741 29.0078 54.7441 29.2678C54.2141 29.5278 53.7442 29.0978 53.4542 28.5478C53.4042 28.4678 53.4441 28.2778 53.5641 28.3178Z" fill="#263238"/>
<path d="M48.7944 38.4079C49.0644 38.5879 49.3543 38.8579 49.7143 38.8279C50.0753 38.7601 50.4168 38.6132 50.7143 38.3979C50.7143 38.3979 50.7844 38.3979 50.7644 38.3979C50.6601 38.6116 50.5001 38.7931 50.3012 38.9234C50.1023 39.0536 49.8719 39.1277 49.6343 39.1379C49.4266 39.1274 49.2273 39.0524 49.0642 38.9234C48.9011 38.7943 48.7823 38.6176 48.7243 38.4179C48.6843 38.4079 48.7544 38.3779 48.7944 38.4079Z" fill="#263238"/>
<path d="M51.9745 34.0079C51.9745 34.0079 52.5045 35.3879 52.6645 36.0679C52.6645 36.1279 52.5244 36.1979 52.3044 36.2579C51.7518 36.5006 51.1429 36.586 50.5447 36.5049C49.9466 36.4237 49.3825 36.1791 48.9145 35.7979C48.8985 35.7873 48.8875 35.7708 48.8837 35.752C48.88 35.7333 48.8838 35.7138 48.8944 35.6979C48.905 35.682 48.9216 35.6709 48.9403 35.6672C48.9591 35.6634 48.9785 35.6673 48.9944 35.6779C49.9917 36.0598 51.0851 36.1124 52.1144 35.8279C52.1144 35.6279 51.1145 33.4979 51.2245 33.4679C51.7588 33.3971 52.3001 33.3971 52.8344 33.4679C51.8344 30.5679 50.3244 27.8479 49.3444 24.9379C49.3444 24.8279 49.4545 24.7679 49.5045 24.8479C51.1854 27.7029 52.5788 30.7177 53.6645 33.8479C53.7745 34.2379 52.2745 34.0979 51.9745 34.0079Z" fill="#263238"/>
<path d="M51.7645 36.0079C51.5374 36.5718 51.1689 37.0677 50.6945 37.4479C50.4316 37.6462 50.1137 37.758 49.7845 37.7679C49.0645 37.7679 48.8745 37.1679 48.8445 36.5979C48.8354 36.2991 48.8623 36.0003 48.9245 35.7079C49.8139 36.1122 50.8103 36.2174 51.7645 36.0079Z" fill="#263238"/>
<path d="M50.6942 37.4478C50.4314 37.6462 50.1134 37.758 49.7842 37.7678C49.0642 37.7678 48.8742 37.1678 48.8442 36.5978C49.2032 36.514 49.5799 36.552 49.9149 36.7059C50.2498 36.8598 50.524 37.1209 50.6942 37.4478Z" fill="#FF9CBD"/>
<path d="M34.0542 34.4978C36.7842 34.4978 36.6542 28.2378 36.6542 28.2378C36.6542 28.2378 47.8442 24.7878 47.5842 15.3478C49.5311 18.9437 52.7854 21.6538 56.6742 22.9178C56.6742 22.9178 54.9242 12.7578 46.5642 11.8478C46.5642 11.8478 36.0342 9.51781 31.4442 18.2378C26.8542 26.9578 32.2242 34.5078 34.0542 34.4978Z" fill="#263238"/>
<path d="M47.5645 14.6478C47.8696 16.0717 47.8696 17.544 47.5645 18.9678C47.2932 20.4014 46.728 21.7633 45.9045 22.9678C45.698 23.2704 45.4743 23.5609 45.2345 23.8378L44.8845 24.2678L44.4945 24.6578C44.2245 24.9078 43.9645 25.1678 43.6845 25.3978L42.7945 26.0478L42.3545 26.3578L41.8745 26.6178L40.8745 27.1378C40.2145 27.4178 39.5345 27.6678 38.8745 27.9078C39.4945 27.5278 40.1445 27.2278 40.7445 26.8578L41.6345 26.2678L42.0745 25.9778L42.4845 25.6378C42.7445 25.4078 43.0145 25.1878 43.2945 24.9678C43.5745 24.7478 43.7845 24.4678 44.0245 24.2278L44.3945 23.8478L44.7145 23.4378C44.9442 23.1732 45.1548 22.8925 45.3445 22.5978C46.1261 21.4411 46.7045 20.1593 47.0545 18.8078C47.2416 18.1269 47.3688 17.4309 47.4345 16.7278C47.5353 16.0393 47.5788 15.3436 47.5645 14.6478Z" fill="#263238"/>
<path d="M35.5043 33.7479C35.5043 33.7479 31.9343 29.5779 30.0143 30.8879C28.0943 32.1979 31.0743 38.4579 33.5443 39.1179C33.8553 39.2228 34.1843 39.2639 34.5115 39.2388C34.8388 39.2136 35.1576 39.1227 35.4489 38.9714C35.7402 38.8202 35.998 38.6117 36.2068 38.3585C36.4157 38.1053 36.5713 37.8126 36.6643 37.4979L35.5043 33.7479Z" fill="#EB9481"/>
<path d="M33.4141 16.2078C32.8841 17.5478 25.2841 18.6978 21.7741 13.6578C18.2641 8.61784 22.4941 2.30784 28.6441 5.09784C32.5641 6.85784 34.5641 13.3578 33.4141 16.2078Z" fill="#263238"/>
<path d="M21.4541 6.68779C22.7106 5.24019 24.42 4.26038 26.3041 3.9078C27.1818 3.72358 28.0926 3.77453 28.9443 4.0555C29.796 4.33647 30.5583 4.83748 31.1541 5.5078C32.3709 6.93163 33.1765 8.66029 33.4841 10.5078C33.6695 11.4435 33.7699 12.394 33.7841 13.3478C33.8363 14.319 33.7109 15.2916 33.4141 16.2178C33.9127 15.3459 34.2195 14.3777 34.3141 13.3778C34.4291 12.3811 34.4291 11.3745 34.3141 10.3778C34.1254 8.31501 33.3007 6.36174 31.9541 4.7878C31.2395 3.98649 30.3135 3.40287 29.2823 3.10395C28.2511 2.80502 27.1565 2.80289 26.1241 3.0978C25.1435 3.34951 24.224 3.79741 23.4214 4.41445C22.6187 5.03149 21.9495 5.80484 21.4541 6.68779Z" fill="#263238"/>
</svg>
