<svg width="85" height="85" viewBox="0 0 85 85" fill="none" xmlns="http://www.w3.org/2000/svg">
<path d="M42.5 85C65.9721 85 85 65.9721 85 42.5C85 19.0279 65.9721 0 42.5 0C19.0279 0 0 19.0279 0 42.5C0 65.9721 19.0279 85 42.5 85Z" fill="#A6A6A6"/>
<path d="M67.1599 77.1599C66.2799 77.7899 65.3799 78.3799 64.4599 78.9499C62.2342 80.2843 59.8911 81.4123 57.4599 82.3199C56.8899 82.5399 56.3099 82.7399 55.7299 82.9399C54.4199 83.3699 53.0699 83.7399 51.7299 84.0399C50.5299 84.2999 49.3099 84.5199 48.0699 84.6799C46.4399 82.2499 45.0699 80.1399 44.1799 78.5099C43.5599 77.4299 42.7399 75.9199 41.9099 74.2199C39.3399 69.0099 36.6299 61.9999 39.1399 60.0899L39.2799 59.9899L39.4799 59.8799L39.6099 59.8199C39.8411 59.7169 40.0878 59.6527 40.3399 59.6299C40.6918 59.5843 41.0481 59.5843 41.3999 59.6299C43.2247 59.9217 44.9825 60.5381 46.5899 61.4499C47.0599 61.6799 47.5399 61.9399 48.0599 62.2299L48.2599 62.3399C52.5199 64.7199 59.8299 70.7999 67.1599 77.1599Z" fill="#FFC4C0"/>
<path d="M68.6602 75.9901C68.1702 76.3801 67.6602 76.7501 67.1602 77.1101C66.2802 77.7401 65.3802 78.3301 64.4602 78.9001C62.2344 80.2344 59.8914 81.3625 57.4602 82.2701C56.8902 82.4901 56.3102 82.6901 55.7302 82.8901C54.4202 83.3201 53.0702 83.6901 51.7302 83.9901C50.5302 84.2501 49.3102 84.4701 48.0702 84.6301L47.3302 84.7201C44.7202 80.6201 42.5202 76.9201 40.9902 74.0301L40.7302 73.5401C40.1902 72.4934 39.7202 71.4934 39.3202 70.5401C39.0202 69.8734 38.7602 69.2068 38.5402 68.5401C38.4002 68.1201 38.2702 67.7101 38.1502 67.3101C38.0502 66.9601 37.9702 66.6301 37.8902 66.3101C37.8102 65.9901 37.7602 65.6601 37.7102 65.3101C37.5748 64.5716 37.5345 63.8188 37.5902 63.0701C37.6185 62.5277 37.7368 61.9937 37.9402 61.4901C38.0326 61.2581 38.15 61.0368 38.2902 60.8301L38.5002 60.5501C38.5784 60.4586 38.6618 60.3718 38.7502 60.2901C38.8336 60.2091 38.924 60.1354 39.0202 60.0701L39.1402 59.9901L39.2802 59.8901L39.4802 59.7801L39.6102 59.7201C39.8166 59.6254 40.0307 59.5485 40.2502 59.4901C42.0184 59.2039 43.8316 59.4366 45.4702 60.1601C46.4174 60.4831 47.3427 60.8673 48.2402 61.3101C50.0009 62.1913 51.6983 63.1938 53.3202 64.3101C57.8502 67.2801 63.3202 71.5901 68.6602 75.9901Z" fill="#FFC727"/>
<path d="M50.0101 66.9401C49.7701 66.7101 49.5301 66.4901 49.2701 66.2701L49.0001 66.0501L48.8001 65.9001C48.6932 65.8144 48.5795 65.7375 48.4601 65.6701L48.1201 65.4501L47.9201 65.3401L47.7901 65.2801L47.3701 65.0901C47.4694 65.33 47.5829 65.5638 47.7101 65.7901C48.1321 66.5171 48.6427 67.1889 49.2301 67.7901L49.9001 68.4001L50.4501 68.8301C50.8841 69.1475 51.354 69.4127 51.8501 69.6201C51.4128 68.6179 50.7883 67.7083 50.0101 66.9401ZM50.0101 66.9401C49.7701 66.7101 49.5301 66.4901 49.2701 66.2701L49.0001 66.0501L48.8001 65.9001C48.6932 65.8144 48.5795 65.7375 48.4601 65.6701L48.1201 65.4501L47.9201 65.3401L47.7901 65.2801L47.3701 65.0901C47.4694 65.33 47.5829 65.5638 47.7101 65.7901C48.1321 66.5171 48.6427 67.1889 49.2301 67.7901L49.9001 68.4001L50.4501 68.8301C50.8841 69.1475 51.354 69.4127 51.8501 69.6201C51.4128 68.6179 50.7883 67.7083 50.0101 66.9401Z" fill="white"/>
<path opacity="0.1" d="M64.4702 78.9001C62.2445 80.2345 59.9014 81.3625 57.4702 82.2701C56.9002 82.4901 56.3202 82.6901 55.7402 82.8901C54.4302 83.3201 53.0802 83.6901 51.7402 83.9901C50.5402 84.2501 49.3202 84.4701 48.0802 84.6301L47.3402 84.7201C44.7302 80.6201 42.5302 76.9201 41.0002 74.0301L40.7402 73.5401C40.2002 72.4934 39.7302 71.4934 39.3302 70.5401C39.0302 69.8734 38.7702 69.2068 38.5502 68.5401C38.4102 68.1201 38.2802 67.7101 38.1602 67.3101C38.0602 66.9601 37.9802 66.6301 37.9002 66.3101C37.8202 65.9901 37.7702 65.6601 37.7202 65.3101C37.5949 64.5705 37.5546 63.8189 37.6002 63.0701C37.6285 62.5277 37.7468 61.9937 37.9502 61.4901C38.0426 61.2581 38.16 61.0368 38.3002 60.8301L38.5102 60.5501C38.5884 60.4586 38.6718 60.3718 38.7602 60.2901C38.8436 60.2091 38.934 60.1355 39.0302 60.0701L39.1502 59.9901L39.2902 59.8901L39.4902 59.7801L39.6202 59.7201C39.8304 59.6289 40.0478 59.5553 40.2702 59.5001C40.5618 59.4253 40.8598 59.3784 41.1602 59.3601L41.3802 59.5401L44.9202 62.5401L47.7902 64.9401L49.1602 66.0901L64.4702 78.9001Z" fill="black"/>
<path d="M55.7702 82.89C54.4602 83.32 53.1102 83.69 51.7702 83.99C50.5702 84.25 49.3502 84.47 48.1102 84.63L47.3702 84.72C41.115 85.4262 34.7811 84.7433 28.8202 82.72H28.7102H28.6102L28.1302 82.55C23.9275 81.0154 19.9927 78.8286 16.4702 76.07C17.6602 73.98 18.7602 72.14 19.7902 70.53C20.5302 69.37 21.2202 68.33 21.8802 67.4C25.3702 62.4 27.7802 60.4 29.6602 59.4L30.0102 59.23C30.1419 59.1564 30.279 59.0929 30.4202 59.04C30.6702 58.93 30.9102 58.85 31.1402 58.77C33.7094 58.0055 36.402 57.744 39.0702 58C41.3664 58.0923 43.5877 58.842 45.4702 60.16C45.9169 60.5222 46.3019 60.9545 46.6102 61.44C46.9569 61.9933 47.2902 62.5633 47.6102 63.15L47.9702 63.79C48.3902 64.55 48.8002 65.33 49.2002 66.15C49.2316 66.1958 49.2552 66.2465 49.2702 66.3C49.4702 66.71 49.6702 67.12 49.8702 67.55C50.0702 67.98 50.2702 68.39 50.4602 68.83C52.4424 73.3107 54.1751 77.8977 55.6502 82.57C55.7002 82.66 55.7302 82.77 55.7702 82.89Z" fill="#FFC727"/>
<path d="M41.2601 81.1601C40.1708 81.1421 39.0881 81.3321 38.0701 81.7201C39.0868 82.1127 40.1704 82.3029 41.2601 82.2801C42.3528 82.2999 43.4391 82.1098 44.4601 81.7201C43.4391 81.3304 42.3528 81.1403 41.2601 81.1601ZM23.1001 66.6001C22.9501 66.6701 22.8101 66.7601 22.6701 66.8401C22.5275 66.9207 22.3905 67.0109 22.2601 67.1101C22.1945 67.1452 22.134 67.1889 22.0801 67.2401L21.8701 67.3901C21.5501 67.6401 21.2601 67.9101 20.9701 68.1801C20.1869 68.9429 19.5528 69.845 19.1001 70.8401C19.3476 70.7396 19.5882 70.6227 19.8201 70.4901C20.5287 70.0719 21.1807 69.5644 21.7601 68.9801C22.5456 68.2215 23.1771 67.3183 23.6201 66.3201L23.1001 66.6001ZM49.8701 67.5401C49.6701 67.1201 49.4701 66.7001 49.2601 66.2901L48.9901 66.0701L48.7901 65.9201C48.6832 65.8344 48.5694 65.7575 48.4501 65.6901L48.1101 65.4701L47.9101 65.3601L47.7801 65.2901L47.3601 65.1001C47.4593 65.34 47.5729 65.5738 47.7001 65.8001C48.1221 66.5271 48.6326 67.1989 49.2201 67.8001L49.8901 68.4101L50.4401 68.8401C50.2701 68.3601 50.0701 67.9401 49.8701 67.5201V67.5401ZM49.8701 67.5401C49.6701 67.1201 49.4701 66.7001 49.2601 66.2901L48.9901 66.0701L48.7901 65.9201C48.6832 65.8344 48.5694 65.7575 48.4501 65.6901L48.1101 65.4701L47.9101 65.3601L47.7801 65.2901L47.3601 65.1001C47.4593 65.34 47.5729 65.5738 47.7001 65.8001C48.1221 66.5271 48.6326 67.1989 49.2201 67.8001L49.8901 68.4101L50.4401 68.8401C50.2701 68.3601 50.0701 67.9401 49.8701 67.5201V67.5401Z" fill="white"/>
<path d="M32.6798 66.43C32.2582 69.3799 31.5687 72.2852 30.6198 75.11C29.7598 77.79 28.9098 80.24 28.0798 82.49C23.8984 80.9691 19.9809 78.8029 16.4698 76.07C15.6298 75.42 14.8098 74.73 14.0298 74.07C15.4498 72.18 16.8798 70.35 18.2998 68.6C23.0198 62.79 27.0598 59.6 29.6798 59.41H29.9798C32.1798 59.34 33.2598 61.64 32.6798 66.43Z" fill="#FFC4C0"/>
<path d="M33.2402 67.2701C33.0216 69.0762 32.6876 70.8666 32.2402 72.6301C31.5343 75.1682 30.6795 77.6625 29.6802 80.1001L28.6202 82.69H28.5202L28.0402 82.5201C23.871 80.9862 19.9672 78.8099 16.4702 76.0701C15.6302 75.4201 14.8102 74.7301 14.0302 74.0701L13.2202 73.3201C15.8051 69.9308 18.6828 66.7753 21.8202 63.89C25.6802 60.49 28.3102 59.13 30.0802 59.05H30.4402C33.4702 59.16 33.6502 63.5201 33.2402 67.2701Z" fill="#FFC727"/>
<path d="M23.1001 66.5801C22.9501 66.6501 22.8101 66.7401 22.6701 66.8201C22.5275 66.9007 22.3905 66.9909 22.2601 67.0901C22.1945 67.1251 22.134 67.1689 22.0801 67.2201L21.8501 67.4001C21.5301 67.6501 21.2401 67.9201 20.9501 68.1901C20.1669 68.9529 19.5328 69.855 19.0801 70.8501C19.3276 70.7496 19.5681 70.6326 19.8001 70.5001C20.5087 70.0819 21.1607 69.5744 21.7401 68.9901C22.5256 68.2314 23.1571 67.3282 23.6001 66.3301L23.1001 66.5801Z" fill="white"/>
<path d="M29.7201 80.1001C29.4101 80.9701 29.0901 81.8401 28.7701 82.7001H28.6601H28.5601C28.9301 81.8501 29.3001 81.0001 29.6501 80.1401L29.7201 80.1001Z" fill="#263238"/>
<path d="M42.2298 74.1601C37.7198 74.3201 31.6198 66.2801 29.7498 60.3701C29.6298 59.9601 30.9498 56.2201 32.3398 51.5901C33.1698 48.7801 34.0298 45.5901 34.6098 42.6901C34.7298 42.0901 52.1198 50.7901 52.1198 50.7901C50.3464 54.2464 49.003 57.907 48.1198 61.6901C48.0453 62.0958 48.0085 62.5075 48.0098 62.9201C48.0098 62.9801 48.0098 63.0501 48.0098 63.1201C47.9198 65.5101 46.5898 74.0201 42.2298 74.1601Z" fill="#FFC4C0"/>
<path d="M35.7302 43.02C35.6002 48.15 36.3202 60.73 46.0902 62.89C46.7143 63.0343 47.3503 63.1214 47.9902 63.15C47.9942 63.0834 47.9942 63.0166 47.9902 62.95C47.9899 62.538 48.0234 62.1266 48.0902 61.72C48.9724 57.9335 50.3158 54.2694 52.0902 50.81C52.0902 50.81 39.5702 44.54 35.7302 43.02Z" fill="#263238"/>
<path d="M31.4698 23.44C29.5898 30.12 33.4698 49.24 38.3198 53.44C45.3198 59.5 56.5198 59.85 61.6198 51.51C66.5598 43.42 61.0198 18.59 55.6198 14.82C47.7698 9.23004 34.2698 13.56 31.4698 23.44Z" fill="#FFC4C0"/>
<path d="M48.2201 35.51C48.2201 35.51 48.1301 35.6 48.1501 35.65C48.4901 36.92 48.6701 38.43 47.6201 39.13C47.6201 39.13 47.6201 39.22 47.6201 39.2C49.0101 38.66 48.7501 36.66 48.2201 35.51Z" fill="#263238"/>
<path d="M46.7601 34.45C44.6601 34.79 45.4901 38.95 47.4301 38.64C49.3701 38.33 48.4701 34.16 46.7601 34.45Z" fill="#263238"/>
<path d="M55.61 34.0301C55.61 33.9801 55.72 34.0301 55.73 34.1201C55.95 35.4201 56.41 36.8701 57.66 37.0701C57.66 37.0701 57.71 37.1401 57.66 37.1401C56.2 37.2201 55.6 35.2901 55.61 34.0301Z" fill="#263238"/>
<path d="M56.4703 32.4499C58.4703 31.8899 59.4703 36.0099 57.6103 36.5399C55.7503 37.0699 54.7803 32.9299 56.4703 32.4499Z" fill="#263238"/>
<path d="M44.7999 32.41C45.3399 32.15 45.7999 31.83 46.3099 31.53C46.8199 31.23 47.3699 30.97 47.6699 30.34C47.7265 30.1578 47.723 29.9623 47.6599 29.7822C47.5969 29.6022 47.4777 29.4471 47.3199 29.34C46.9634 29.1677 46.5667 29.0953 46.1723 29.1305C45.7778 29.1657 45.4003 29.3072 45.0799 29.54C44.3538 29.9045 43.7877 30.524 43.4899 31.28C43.4575 31.4521 43.4709 31.6298 43.5287 31.7952C43.5866 31.9606 43.6868 32.1078 43.8195 32.2223C43.9522 32.3367 44.1125 32.4143 44.2846 32.4472C44.4567 32.4802 44.6344 32.4673 44.7999 32.41Z" fill="#263238"/>
<path d="M58.0299 30.7599C57.4503 30.7898 56.8695 30.7898 56.2899 30.7599C55.6754 30.851 55.0479 30.7423 54.4999 30.4499C54.3476 30.3229 54.2415 30.1492 54.1981 29.9557C54.1547 29.7622 54.1764 29.5598 54.2599 29.3799C54.475 29.0512 54.7734 28.7854 55.1248 28.6097C55.4761 28.4341 55.8678 28.3547 56.2599 28.3799C57.0701 28.3165 57.8751 28.5551 58.5199 29.0499C58.6539 29.1757 58.7506 29.3361 58.7995 29.5133C58.8483 29.6905 58.8474 29.8778 58.7967 30.0545C58.7461 30.2312 58.6478 30.3905 58.5125 30.515C58.3772 30.6394 58.2102 30.7242 58.0299 30.7599Z" fill="#263238"/>
<path d="M50.1201 43.04C50.5472 43.4875 51.0633 43.8406 51.6351 44.0765C52.2069 44.3125 52.8218 44.4261 53.4401 44.41C53.9787 44.4045 54.5139 44.3237 55.0301 44.17C55.1298 44.1506 55.227 44.1204 55.3201 44.08L55.6001 43.98C55.6656 43.9524 55.7205 43.9044 55.7565 43.8432C55.7925 43.7819 55.8078 43.7106 55.8001 43.64C55.8058 43.5968 55.8058 43.5531 55.8001 43.51V43.4C55.6301 42.4 55.2401 40.91 55.2401 40.91C55.6301 41.02 57.6501 41.48 57.5201 40.97C56.5149 36.5177 55.0608 32.1789 53.1801 28.02C53.1749 28.0049 53.1667 27.991 53.1561 27.979C53.1454 27.9671 53.1326 27.9574 53.1182 27.9504C53.1038 27.9434 53.0881 27.9394 53.0722 27.9384C53.0562 27.9375 53.0402 27.9397 53.0251 27.945C53.01 27.9503 52.9961 27.9584 52.9842 27.9691C52.9722 27.9797 52.9625 27.9926 52.9555 28.007C52.9486 28.0214 52.9445 28.037 52.9436 28.0529C52.9427 28.0689 52.9449 28.0849 52.9501 28.1C53.8501 32.22 55.4701 36.15 56.4501 40.28C55.7308 40.1038 54.9902 40.0297 54.2501 40.06C54.1201 40.13 55.0701 42.93 55.1101 43.38V43.43C54.3136 43.6725 53.4764 43.7523 52.6483 43.6647C51.8203 43.577 51.0183 43.3238 50.2901 42.92C50.1101 42.85 50.0201 42.95 50.1201 43.04Z" fill="#263238"/>
<path d="M30.73 38.4C35.8 38.65 38.32 32.55 37.03 27.71C37.03 27.71 50.54 29.22 50.96 18.39C51.9394 19.8364 53.2602 21.0193 54.8056 21.8338C56.3509 22.6483 58.0732 23.0695 59.82 23.06L61.41 27.01C62.78 26.58 64.17 22.62 60.72 19.61C60.72 19.61 60.38 14.23 56.33 11.08C55.2397 10.1714 53.909 9.59892 52.4995 9.43206C51.09 9.2652 49.6624 9.51111 48.39 10.14C46.0097 8.48736 43.079 7.82734 40.22 8.29996C38.7311 8.57406 37.3288 9.19858 36.1289 10.1219C34.9291 11.0452 33.9663 12.2409 33.3201 13.61C33.3201 13.61 26.68 15.03 25.64 19.8C25.3171 21.1451 25.2819 22.5434 25.537 23.9031C25.792 25.2628 26.3315 26.5533 27.12 27.69C27.12 27.69 25.49 29.58 26.42 33.61C27.02 36.16 29.2 38.32 30.73 38.4Z" fill="#263238"/>
<path d="M50.6398 17.4301C50.7612 18.3046 50.788 19.1897 50.7198 20.0701C50.6832 20.9412 50.5388 21.8044 50.2898 22.64C49.8314 24.3046 48.7595 25.7338 47.2898 26.64C45.7708 27.4686 44.0792 27.9309 42.3498 27.9901C41.4798 27.9901 40.5998 27.9901 39.7198 27.9901C38.8398 27.9901 37.9598 27.8301 37.0698 27.7701C37.9298 27.97 38.8098 28.1201 39.6898 28.2901C40.5698 28.4601 41.4698 28.4101 42.3698 28.4801C44.1981 28.4951 46.0006 28.048 47.6098 27.1801C49.1995 26.2034 50.3416 24.6411 50.7898 22.83C51.2016 21.0468 51.15 19.1877 50.6398 17.4301Z" fill="#263238"/>
<path d="M57.71 23.5401C56.2261 23.0654 54.8307 22.3491 53.58 21.4201C52.971 20.961 52.4291 20.4191 51.97 19.8101C51.5025 19.1901 51.1066 18.5191 50.79 17.8101C50.8902 18.6188 51.1557 19.3983 51.57 20.1001C51.9858 20.8156 52.5399 21.4411 53.2 21.9401C53.8519 22.4364 54.5773 22.8278 55.35 23.1001C56.1074 23.3746 56.9046 23.5232 57.71 23.5401Z" fill="#263238"/>
<path d="M35.9199 38.9901C35.9199 38.9901 31.3199 32.9901 28.5699 34.6301C25.8199 36.2701 29.4499 45.1501 32.8099 46.2401C33.231 46.4105 33.6824 46.4938 34.1366 46.4848C34.5909 46.4758 35.0386 46.3747 35.4527 46.1878C35.8668 46.0008 36.2387 45.7319 36.5459 45.3971C36.853 45.0623 37.0891 44.6687 37.2399 44.2401L35.9199 38.9901Z" fill="#FFC4C0"/>
<path d="M29.6802 37.1599V37.2499C32.0402 38.0899 33.3502 40.1899 34.2902 42.3799C34.1464 42.1539 33.9553 41.9617 33.7299 41.8168C33.5046 41.6719 33.2506 41.5776 32.9852 41.5405C32.7199 41.5034 32.4497 41.5244 32.1933 41.602C31.9369 41.6796 31.7004 41.812 31.5002 41.9899C31.4892 42.0002 31.4818 42.0138 31.4792 42.0287C31.4765 42.0435 31.4787 42.0588 31.4854 42.0723C31.4922 42.0857 31.5031 42.0967 31.5166 42.1035C31.53 42.1103 31.5453 42.1125 31.5602 42.1099C31.9634 41.9656 32.4012 41.9486 32.8143 42.0613C33.2275 42.174 33.596 42.4109 33.8702 42.7399C34.3187 43.2977 34.7075 43.901 35.0302 44.5399C35.1502 44.7399 35.5202 44.6099 35.4302 44.3799V44.3199C35.3302 41.3499 32.8602 37.3099 29.6802 37.1599Z" fill="#263238"/>
<g opacity="0.2">
<path d="M41.9999 40.78C41.9948 40.8613 41.9588 40.9377 41.8994 40.9934C41.8399 41.0492 41.7614 41.0801 41.6799 41.08C41.5994 41.0726 41.5243 41.036 41.469 40.977C41.4137 40.918 41.382 40.8408 41.3799 40.76C41.3799 40.6777 41.4125 40.5989 41.4707 40.5408C41.5288 40.4826 41.6077 40.45 41.6899 40.45C41.7721 40.45 41.851 40.4826 41.9091 40.5408C41.9672 40.5989 41.9999 40.6777 41.9999 40.76V40.78Z" fill="black"/>
<path d="M48.4699 40.7599C48.4569 40.8314 48.4192 40.8959 48.3635 40.9425C48.3078 40.989 48.2375 41.0145 48.1649 41.0145C48.0923 41.0145 48.022 40.989 47.9662 40.9425C47.9105 40.8959 47.8728 40.8314 47.8599 40.7599C47.8611 40.7196 47.8705 40.68 47.8874 40.6434C47.9043 40.6068 47.9284 40.574 47.9583 40.5469C47.9881 40.5199 48.0231 40.4991 48.0612 40.4859C48.0993 40.4726 48.1397 40.4672 48.1799 40.4699C48.2552 40.4746 48.3263 40.5067 48.3797 40.5601C48.4331 40.6135 48.4651 40.6846 48.4699 40.7599Z" fill="black"/>
<path d="M46.0697 42.91C46.0646 42.9914 46.0286 43.0677 45.9691 43.1235C45.9097 43.1792 45.8312 43.2102 45.7497 43.21C45.7094 43.2088 45.6697 43.1994 45.6332 43.1825C45.5966 43.1656 45.5638 43.1415 45.5367 43.1116C45.5096 43.0817 45.4888 43.0467 45.4756 43.0087C45.4624 42.9706 45.457 42.9302 45.4597 42.89C45.461 42.8493 45.4703 42.8092 45.487 42.7721C45.5038 42.735 45.5278 42.7016 45.5575 42.6737C45.5872 42.6458 45.6221 42.6241 45.6602 42.6097C45.6984 42.5954 45.7389 42.5887 45.7797 42.59C45.8199 42.5913 45.8596 42.6006 45.8962 42.6175C45.9327 42.6344 45.9656 42.6585 45.9926 42.6884C46.0197 42.7183 46.0405 42.7533 46.0537 42.7914C46.0669 42.8295 46.0724 42.8698 46.0697 42.91Z" fill="black"/>
<path d="M42.28 38.26C42.2749 38.3404 42.2386 38.4157 42.1788 38.4698C42.1191 38.524 42.0406 38.5527 41.96 38.55C41.9198 38.5487 41.8801 38.5394 41.8435 38.5224C41.8069 38.5055 41.7741 38.4814 41.7471 38.4516C41.72 38.4217 41.6992 38.3867 41.686 38.3486C41.6728 38.3105 41.6673 38.2702 41.67 38.23C41.6619 38.1853 41.6637 38.1394 41.6753 38.0955C41.6869 38.0516 41.7079 38.0107 41.737 37.9759C41.7661 37.941 41.8025 37.913 41.8437 37.8937C41.8848 37.8745 41.9296 37.8645 41.975 37.8645C42.0205 37.8645 42.0653 37.8745 42.1064 37.8937C42.1476 37.913 42.1839 37.941 42.213 37.9759C42.2421 38.0107 42.2632 38.0516 42.2748 38.0955C42.2864 38.1394 42.2882 38.1853 42.28 38.23V38.26Z" fill="black"/>
<path d="M45.2298 40.1601C45.2285 40.2008 45.2192 40.2409 45.2024 40.278C45.1857 40.3151 45.1617 40.3486 45.132 40.3764C45.1023 40.4043 45.0674 40.426 45.0292 40.4404C44.9911 40.4547 44.9505 40.4614 44.9098 40.4601C44.8695 40.4588 44.8299 40.4495 44.7933 40.4326C44.7567 40.4157 44.7239 40.3916 44.6968 40.3617C44.6698 40.3318 44.649 40.2968 44.6358 40.2587C44.6225 40.2207 44.6171 40.1803 44.6198 40.1401C44.6249 40.0587 44.6609 39.9824 44.7203 39.9266C44.7798 39.8709 44.8583 39.8399 44.9398 39.8401C44.9801 39.8413 45.0197 39.8507 45.0563 39.8676C45.0929 39.8845 45.1257 39.9086 45.1528 39.9385C45.1799 39.9684 45.2006 40.0034 45.2139 40.0415C45.2271 40.0795 45.2325 40.1199 45.2298 40.1601Z" fill="black"/>
<path d="M61.2098 36.36C61.2085 36.4003 61.1992 36.4399 61.1823 36.4765C61.1654 36.5131 61.1413 36.5459 61.1114 36.573C61.0815 36.6 61.0465 36.6208 61.0084 36.634C60.9703 36.6473 60.93 36.6527 60.8898 36.65C60.8093 36.6448 60.734 36.6085 60.6799 36.5488C60.6258 36.4891 60.597 36.4106 60.5998 36.33C60.6128 36.2586 60.6504 36.194 60.7061 36.1474C60.7619 36.1009 60.8322 36.0754 60.9048 36.0754C60.9774 36.0754 61.0477 36.1009 61.1034 36.1474C61.1592 36.194 61.1968 36.2586 61.2098 36.33V36.36Z" fill="black"/>
<path d="M58.7499 37.9999C58.7486 38.0402 58.7393 38.0798 58.7224 38.1164C58.7054 38.153 58.6814 38.1858 58.6515 38.2129C58.6216 38.2399 58.5866 38.2607 58.5485 38.2739C58.5104 38.2872 58.4701 38.2926 58.4299 38.2899C58.3485 38.2848 58.2722 38.2488 58.2164 38.1894C58.1607 38.1299 58.1297 38.0514 58.1299 37.9699C58.1311 37.9296 58.1405 37.89 58.1574 37.8534C58.1743 37.8168 58.1984 37.784 58.2283 37.7569C58.2581 37.7298 58.2932 37.7091 58.3312 37.6958C58.3693 37.6826 58.4097 37.6772 58.4499 37.6799C58.5312 37.685 58.6076 37.7209 58.6633 37.7804C58.7191 37.8399 58.75 37.9184 58.7499 37.9999Z" fill="black"/>
<path d="M59.2698 40.0499C59.2647 40.1304 59.2284 40.2057 59.1686 40.2598C59.1089 40.314 59.0304 40.3427 58.9499 40.3399C58.9096 40.3387 58.8699 40.3293 58.8333 40.3124C58.7968 40.2955 58.764 40.2714 58.7369 40.2415C58.7098 40.2117 58.6891 40.1766 58.6758 40.1386C58.6626 40.1005 58.6571 40.0601 58.6599 40.0199C58.6728 39.9485 58.7105 39.8839 58.7662 39.8374C58.8219 39.7909 58.8923 39.7654 58.9648 39.7654C59.0374 39.7654 59.1078 39.7909 59.1635 39.8374C59.2192 39.8839 59.2569 39.9485 59.2698 40.0199V40.0499Z" fill="black"/>
<path d="M61.4696 38.73C61.4684 38.7703 61.459 38.8099 61.4421 38.8465C61.4252 38.8831 61.4011 38.9159 61.3712 38.943C61.3414 38.9701 61.3064 38.9908 61.2683 39.0041C61.2302 39.0173 61.1898 39.0227 61.1496 39.02C61.105 39.0282 61.059 39.0264 61.0151 39.0148C60.9712 39.0032 60.9304 38.9821 60.8955 38.953C60.8607 38.9239 60.8327 38.8875 60.8134 38.8464C60.7942 38.8053 60.7842 38.7604 60.7842 38.715C60.7842 38.6696 60.7942 38.6248 60.8134 38.5836C60.8327 38.5425 60.8607 38.5061 60.8955 38.477C60.9304 38.4479 60.9712 38.4269 61.0151 38.4153C61.059 38.4037 61.105 38.4019 61.1496 38.41C61.2345 38.41 61.3159 38.4437 61.3759 38.5037C61.4359 38.5638 61.4696 38.6452 61.4696 38.73Z" fill="black"/>
</g>
</svg>
