<svg width="88" height="88" viewBox="0 0 88 88" fill="none" xmlns="http://www.w3.org/2000/svg">
<path d="M43.65 87.3C67.7572 87.3 87.3 67.7572 87.3 43.65C87.3 19.5428 67.7572 0 43.65 0C19.5428 0 0 19.5428 0 43.65C0 67.7572 19.5428 87.3 43.65 87.3Z" fill="#EBEBEB"/>
<path d="M59.1999 84.45C58.6299 84.68 58.0499 84.88 57.4599 85.07C57.4371 85.0777 57.4126 85.0777 57.3899 85.07C53.7669 86.2714 50.0009 86.9876 46.1899 87.2C45.9799 86.37 45.7899 85.54 45.5999 84.72C45.4099 83.9 45.2399 83.01 45.1299 82.24C44.9448 81.0965 44.8678 79.938 44.8999 78.78C44.8902 78.7339 44.8902 78.6862 44.8999 78.64C44.8999 78.5 44.8999 78.37 44.8999 78.25C44.8999 78.12 44.8999 78 44.8999 77.88C44.9605 77.3311 45.0951 76.7929 45.2999 76.28C45.3314 76.1865 45.3716 76.0961 45.4199 76.01V75.94C45.662 75.4143 46.0733 74.9849 46.5881 74.7203C47.1029 74.4557 47.6914 74.3711 48.2598 74.48C48.8528 74.5747 49.4267 74.7638 49.9599 75.04C50.3074 75.1962 50.6418 75.3802 50.9599 75.59C53.672 77.5147 56.0074 79.9214 57.8499 82.69C58.3699 83.3 58.7799 83.88 59.1999 84.45Z" fill="#F7A9A0"/>
<path d="M59.76 84.2401C59.57 84.3101 59.39 84.39 59.2 84.45C58.63 84.68 58.05 84.8801 57.46 85.0701C57.4373 85.0777 57.4127 85.0777 57.39 85.0701C53.767 86.2714 50.001 86.9876 46.19 87.2001H45.78C45.69 86.7401 45.59 86.3 45.51 85.87C45.33 84.96 45.19 84.11 45.09 83.31C45.03 82.89 44.98 82.4901 44.95 82.1101C44.8532 81.1667 44.8231 80.2177 44.86 79.2701C44.86 79.2701 44.86 79.2701 44.86 79.2101C44.8698 78.8756 44.8965 78.5418 44.94 78.2101C44.94 78.0801 44.94 77.96 44.94 77.84C44.9903 77.5194 45.0604 77.2021 45.15 76.89C45.15 76.72 45.24 76.5601 45.29 76.4101C45.302 76.3521 45.3187 76.2953 45.34 76.2401C45.3715 76.1465 45.4117 76.0561 45.46 75.9701V75.9001C45.5581 75.6739 45.6752 75.4565 45.81 75.2501C45.9128 75.0987 46.0264 74.955 46.15 74.8201L46.32 74.6501C46.3961 74.5719 46.4799 74.5016 46.57 74.4401C46.8495 74.23 47.1696 74.0802 47.51 74.0001L47.86 73.9301C48.1322 73.8952 48.4077 73.8952 48.68 73.9301C49.5088 74.0425 50.3055 74.3251 51.02 74.7601C53.4264 76.2932 55.4952 78.3008 57.1 80.6601L59.76 84.2401Z" fill="#FF81AE"/>
<path opacity="0.1" d="M57.4601 85.0699C57.4374 85.0776 57.4128 85.0776 57.3901 85.0699C53.7672 86.2713 50.0011 86.9875 46.1901 87.2H45.7801C45.6901 86.74 45.5901 86.2999 45.5101 85.8699C45.3301 84.9599 45.1901 84.1099 45.0901 83.3099C45.0301 82.8999 44.9901 82.4999 44.9601 82.1199C44.8552 81.1738 44.8218 80.2211 44.8601 79.2699C44.8601 79.2699 44.8601 79.2699 44.8601 79.2099C44.8601 79.1499 44.8601 78.8999 44.8601 78.7499C44.8504 78.7038 44.8504 78.6561 44.8601 78.6099C44.903 78.0328 44.9967 77.4606 45.1401 76.8999C45.1401 76.7299 45.2301 76.5699 45.2801 76.4199C45.329 76.2704 45.3857 76.1235 45.4501 75.9799V75.9099C45.5483 75.6838 45.6653 75.4664 45.8001 75.2599C45.9029 75.1086 46.0165 74.9649 46.1401 74.8299L46.3101 74.6599C46.3862 74.5818 46.47 74.5114 46.5601 74.4499C46.8397 74.2399 47.1597 74.0901 47.5001 74.0099L47.8501 73.9399L48.2901 74.4499L50.8401 77.4499C52.7401 79.6399 54.8401 82.0499 57.0101 84.6099C57.2101 84.7799 57.3301 84.9299 57.4601 85.0699Z" fill="black"/>
<path d="M57.3901 85.1C53.7672 86.3013 50.0011 87.0175 46.1901 87.23H45.7801C45.0701 87.23 44.3601 87.28 43.6501 87.28C41.004 87.2827 38.3632 87.0451 35.7601 86.57C35.6201 86.57 35.4701 86.52 35.3301 86.48C32.072 85.8465 28.8978 84.8399 25.8701 83.48C27.5336 80.8142 29.4599 78.3218 31.6201 76.04C32.1201 75.54 32.6201 75.08 33.1201 74.66C33.8572 74.0304 34.6467 73.465 35.4801 72.97C36.0876 72.6069 36.7229 72.2926 37.3801 72.03C41.4601 70.41 45.3001 71.43 48.7501 73.95C49.2001 74.28 49.6401 74.63 50.0701 75.01L50.2601 75.17C50.5373 75.4518 50.7946 75.7525 51.0301 76.07C52.2201 77.58 54.5201 80.77 57.0901 84.58L57.3901 85.1Z" fill="#FF81AE"/>
<path d="M39.07 76.84C38.2218 80.2036 36.9658 83.451 35.33 86.51C32.072 85.8765 28.8977 84.8699 25.87 83.51C25 83.12 24.13 82.7 23.29 82.25C25.2311 80.4457 27.2673 78.7466 29.39 77.16C30.57 76.3 31.87 75.42 33.12 74.69C34.395 73.837 35.8429 73.277 37.36 73.05C38.82 73.02 39.65 74 39.07 76.84Z" fill="#F7A9A0"/>
<path d="M39.2799 77.11C38.6336 79.6422 37.7635 82.1119 36.6799 84.49C36.3799 85.18 36.0799 85.88 35.7599 86.6C35.6199 86.6 35.4699 86.55 35.3299 86.51C32.0718 85.8766 28.8976 84.8699 25.8699 83.51C24.9999 83.12 24.1299 82.7 23.2899 82.25C23.0699 82.14 22.8599 82.02 22.6499 81.9C23.8599 80.82 24.9899 79.9 25.9999 79.09C30.2199 75.83 33.3199 73.87 35.4799 73C36.0837 72.7445 36.7196 72.5729 37.3699 72.49C39.4999 72.31 39.9699 74.03 39.2799 77.11Z" fill="#FF81AE"/>
<path d="M37.39 74.1501C37.66 75.4001 43.49 83.5601 49.18 83.3801C51.04 83.3101 51.18 73.1701 51.18 73.1701L51.36 72.4301L53.85 61.9701L41.65 53.8901L39.88 52.8201C39.88 52.8201 39.39 55.7301 38.81 59.3501C38.81 59.5201 38.75 59.6901 38.73 59.8701C38.71 60.0501 38.65 60.2601 38.62 60.4601L38.35 62.1001C38.29 62.5201 38.23 62.9301 38.18 63.3701C38.13 63.8101 38.06 64.2501 38 64.6901C37.578 67.8255 37.3741 70.9864 37.39 74.1501Z" fill="#F7A9A0"/>
<path d="M38.77 59.3501C39.7857 62.3113 41.4347 65.0156 43.6021 67.2745C45.7695 69.5335 48.4033 71.2928 51.32 72.4301L53.81 61.9701L41.65 53.8901L39.88 52.8201C39.88 52.8201 39.35 55.6901 38.77 59.3501Z" fill="#263238"/>
<path d="M53.7702 25.32C53.7747 25.2534 53.7747 25.1866 53.7702 25.12C53.5769 24.1305 53.0249 23.2473 52.2202 22.64C51.8941 22.3843 51.5296 22.1818 51.1402 22.04L50.8402 21.92L50.9202 21.85C51.1599 21.6596 51.369 21.4336 51.5403 21.18C51.9096 20.6677 52.1248 20.0605 52.1602 19.43C52.21 18.7729 52.0672 18.1155 51.7493 17.5383C51.4314 16.9611 50.9522 16.4891 50.3702 16.18C50.6626 15.8516 50.8548 15.4463 50.9239 15.0121C50.993 14.5778 50.9362 14.1329 50.7602 13.73C50.5364 13.2751 50.2251 12.8687 49.8442 12.5341C49.4633 12.1995 49.0202 11.9433 48.5403 11.78C48.6212 11.3271 48.5877 10.8612 48.4427 10.4246C48.2978 9.98794 48.046 9.59448 47.7102 9.27996C47.2597 8.89605 46.6872 8.68519 46.0952 8.68519C45.5033 8.68519 44.9308 8.89605 44.4802 9.27996C43.7217 7.77493 42.4371 6.60067 40.8702 5.97996C40.2056 5.7537 39.4891 5.72786 38.8099 5.90567C38.1307 6.08347 37.5188 6.45706 37.0502 6.97996C36.6129 6.43516 36.0648 5.98954 35.4423 5.67259C34.8197 5.35564 34.1369 5.17462 33.4391 5.14152C32.7413 5.10843 32.0444 5.22401 31.3947 5.48062C30.7449 5.73723 30.1571 6.129 29.6702 6.62997C29.1648 6.29092 28.5794 6.09033 27.9723 6.04821C27.3651 6.0061 26.7576 6.12393 26.2102 6.38997C25.4304 6.72273 24.7438 7.24112 24.2102 7.89998C23.738 7.63604 23.1952 7.52597 22.6574 7.58513C22.1197 7.64428 21.6138 7.86968 21.2102 8.22996C20.8429 8.58015 20.5581 9.00772 20.3765 9.48164C20.1949 9.95556 20.121 10.464 20.1602 10.97C20.0032 11.2236 19.7913 11.4388 19.5403 11.6C18.9136 12.0027 18.3959 12.5538 18.0331 13.2045C17.6703 13.8551 17.4735 14.5851 17.4602 15.33C17.0374 15.4495 16.6449 15.6578 16.309 15.941C15.9731 16.2242 15.7014 16.5759 15.5121 16.9724C15.3228 17.3689 15.2203 17.8013 15.2113 18.2406C15.2024 18.6799 15.2873 19.1161 15.4602 19.52C14.7001 20.0241 14.169 20.8072 13.9819 21.6999C13.7947 22.5925 13.9666 23.523 14.4602 24.29C13.9131 24.7428 13.4686 25.3069 13.1565 25.9449C12.8444 26.5829 12.6718 27.2801 12.6502 27.99C12.5881 28.5585 12.6931 29.1329 12.9524 29.6426C13.2117 30.1524 13.6141 30.5754 14.1102 30.86C13.8354 31.1962 13.6946 31.6222 13.7149 32.056C13.7352 32.4899 13.9152 32.9009 14.2202 33.21C14.4356 33.4554 14.6771 33.6767 14.9402 33.87C15.3129 34.0711 15.6506 34.3311 15.9402 34.64C16.092 35.0176 16.1602 35.4235 16.1402 35.83C16.1795 36.107 16.2499 36.3787 16.3503 36.64C16.7272 37.6199 17.43 38.4402 18.3406 38.9629C19.2512 39.4855 20.314 39.6788 21.3503 39.51C21.5227 40.2145 21.8994 40.8523 22.4332 41.3433C22.9669 41.8344 23.6339 42.1567 24.3503 42.27C24.7963 42.3829 25.2513 42.4565 25.7102 42.49C26.125 42.496 26.5286 42.6248 26.8702 42.86C27.0802 43.03 27.2502 43.25 27.4702 43.42L27.6902 43.58C28.3864 43.9373 29.1836 44.0467 29.9502 43.89C29.9796 44.0557 30.0197 44.2194 30.0703 44.38C30.2257 44.9303 30.5047 45.438 30.8859 45.8642C31.2672 46.2905 31.7406 46.6242 32.2702 46.84C32.3869 46.8921 32.5072 46.9355 32.6302 46.97L32.9302 47.05C33.124 47.0986 33.3213 47.1321 33.5202 47.15C34.5395 47.2356 35.5602 47.0014 36.4402 46.48C36.6771 46.3484 36.8985 46.1908 37.1003 46.01C37.3673 45.7911 37.6088 45.5429 37.8203 45.27C38.5479 45.7834 39.4102 46.072 40.3002 46.1C41.0354 46.1228 41.7635 45.9502 42.4102 45.6C42.9918 45.276 43.4833 44.812 43.8402 44.25C44.3697 43.4773 44.6394 42.5562 44.6102 41.62C45.1112 41.9517 45.677 42.1732 46.2701 42.2698C46.8631 42.3663 47.4699 42.3357 48.0502 42.18C48.5427 42.0294 48.9966 41.7735 49.3802 41.43C49.5256 41.305 49.6564 41.1641 49.7702 41.01C50.2726 40.366 50.553 39.5766 50.5692 38.7599C50.5854 37.9433 50.3367 37.1434 49.8602 36.48C50.2921 37.2225 50.4618 38.0886 50.3421 38.9392C50.2224 39.7898 49.8202 40.5755 49.2002 41.17C48.6836 41.6144 48.0467 41.8954 47.3701 41.9773C46.6936 42.0592 46.008 41.9383 45.4002 41.63C46.0427 41.6847 46.6895 41.6064 47.3003 41.3999C47.9111 41.1935 48.4728 40.8633 48.9502 40.43C49.4671 39.9319 49.8246 39.2917 49.9777 38.5904C50.1308 37.8891 50.0725 37.1581 49.8102 36.49C50.6025 36.2231 51.3215 35.775 51.9101 35.1813C52.4986 34.5875 52.9404 33.8646 53.2002 33.07C53.3876 32.3874 53.373 31.6651 53.1583 30.9907C52.9435 30.3162 52.5378 29.7185 51.9902 29.27C52.7728 28.7611 53.3666 28.0092 53.6802 27.13C53.798 26.8426 53.8721 26.5392 53.9002 26.23C53.9152 26.1406 53.9152 26.0494 53.9002 25.96C53.9076 25.9498 53.9115 25.9375 53.9115 25.925C53.9115 25.9124 53.9076 25.9002 53.9002 25.89C53.8828 25.695 53.8391 25.5032 53.7702 25.32ZM24.0703 8.09997C24.0703 8.09997 23.6902 8.09997 23.5102 8.09997C23.1688 8.12364 22.8323 8.1943 22.5102 8.30996C21.8446 8.55173 21.2665 8.98705 20.8503 9.55996C20.6737 9.81814 20.5293 10.0969 20.4202 10.39V10.5C20.4951 9.88636 20.7372 9.30518 21.1202 8.81997C21.4833 8.3812 21.974 8.06645 22.5242 7.91949C23.0744 7.77253 23.6568 7.80066 24.1902 7.99997L24.0703 8.09997ZM47.5403 9.45997C47.8377 9.73378 48.0567 10.0821 48.1745 10.4688C48.2923 10.8556 48.3046 11.2668 48.2102 11.66C48.1238 11.1214 47.8922 10.6167 47.5403 10.2C47.1856 9.78951 46.7131 9.49828 46.187 9.36587C45.661 9.23347 45.107 9.26633 44.6003 9.45997C44.5814 9.43476 44.5646 9.408 44.5502 9.37997C44.9796 9.04219 45.5136 8.86527 46.0597 8.87988C46.6058 8.89449 47.1296 9.09971 47.5403 9.45997ZM33.3503 46.85C33.1724 46.8371 32.9954 46.8138 32.8203 46.78L32.5302 46.7C32.3648 46.6514 32.2041 46.5879 32.0502 46.51C31.5681 46.2662 31.1416 45.9254 30.7974 45.5089C30.4532 45.0925 30.1988 44.6094 30.0502 44.09C30.0193 44.0183 29.9926 43.9448 29.9702 43.87L30.0403 44.01C30.4556 44.8016 31.0821 45.4627 31.8503 45.92C32.0555 46.0392 32.2694 46.1428 32.4902 46.23L32.7802 46.33C32.9204 46.3806 33.0641 46.4207 33.2102 46.45C34.2161 46.6806 35.2699 46.5753 36.2102 46.15C35.3396 46.6423 34.3499 46.8845 33.3503 46.85Z" fill="#263238"/>
<path d="M67.51 45.08C71.4 63.53 60.7801 67.95 56.8001 68.78C53.18 69.54 40.8 71.66 35.01 53.7C29.22 35.74 36.59 28.1 44.76 25.93C52.93 23.76 63.65 26.62 67.51 45.08Z" fill="#F7A9A0"/>
<path d="M62.9601 42.69C62.5272 42.715 62.0931 42.715 61.6602 42.69C61.2013 42.746 60.7368 42.6474 60.3401 42.41C60.2285 42.311 60.1531 42.1775 60.1259 42.0308C60.0988 41.8841 60.1214 41.7325 60.1902 41.6C60.3614 41.3581 60.5951 41.1671 60.8662 41.0473C61.1374 40.9276 61.4359 40.8836 61.7301 40.92C62.3337 40.8947 62.9252 41.0943 63.3901 41.48C63.4817 41.5764 63.5448 41.6963 63.5724 41.8264C63.6001 41.9565 63.5911 42.0917 63.5466 42.217C63.502 42.3423 63.4237 42.4529 63.3202 42.5363C63.2166 42.6198 63.092 42.673 62.9601 42.69Z" fill="#263238"/>
<path d="M49.91 45.41C50.3216 45.2641 50.7254 45.0972 51.12 44.91C51.568 44.7891 51.9646 44.5259 52.25 44.16C52.3168 44.028 52.3374 43.8774 52.3084 43.7323C52.2794 43.5872 52.2025 43.4561 52.09 43.36C51.8429 43.1973 51.5565 43.104 51.2609 43.0899C50.9654 43.0758 50.6715 43.1415 50.41 43.28C49.8365 43.4781 49.3559 43.8803 49.06 44.41C49.0007 44.5352 48.9788 44.6749 48.9969 44.8123C49.015 44.9496 49.0724 45.0789 49.1621 45.1844C49.2519 45.29 49.3701 45.3675 49.5028 45.4075C49.6354 45.4475 49.7768 45.4484 49.91 45.41Z" fill="#263238"/>
<path d="M53.6998 49.41C53.6998 49.36 53.6198 49.4901 53.6298 49.5401C53.9398 50.7901 54.0798 52.27 53.0298 52.92C53.0298 52.92 53.0298 53.0101 53.0298 52.9901C54.3998 52.5001 54.1898 50.54 53.6998 49.41Z" fill="#263238"/>
<path d="M52.3001 48.33C50.3001 48.61 50.9501 52.69 52.8501 52.44C54.7501 52.19 54.0201 48.1 52.3001 48.33Z" fill="#263238"/>
<path d="M51.5402 48.69C51.2202 48.98 50.9402 49.45 50.5402 49.56C50.1402 49.67 49.6001 49.33 49.2001 48.98C49.2001 48.98 49.1301 48.98 49.1401 49.04C49.2601 49.82 49.7002 50.57 50.5602 50.55C51.4202 50.53 51.7802 49.73 51.8402 48.91C51.8302 48.76 51.6502 48.57 51.5402 48.69Z" fill="#263238"/>
<path d="M61.0202 47.54C61.0202 47.54 61.1302 47.59 61.1402 47.64C61.3102 48.91 61.7102 50.34 62.9302 50.58V50.65C61.5002 50.69 60.9802 48.78 61.0202 47.54Z" fill="#263238"/>
<path d="M61.9397 46.03C63.9397 45.54 64.7797 49.61 62.9397 50.03C61.0997 50.45 60.2497 46.44 61.9397 46.03Z" fill="#263238"/>
<path d="M62.8401 46.13C63.2101 46.28 63.6001 46.6 63.9901 46.55C64.3801 46.5 64.6802 45.98 64.8802 45.5C64.8802 45.45 64.9401 45.5 64.9501 45.5C65.1301 46.27 65.0402 47.13 64.3202 47.43C63.6002 47.73 63.0302 47.14 62.6902 46.43C62.6502 46.31 62.6501 46.07 62.8401 46.13Z" fill="#263238"/>
<path d="M56.2498 59.2C56.5898 59.46 56.9498 59.83 57.4198 59.81C57.8922 59.7402 58.345 59.5733 58.7498 59.32C58.7498 59.32 58.8298 59.32 58.8098 59.38C58.6585 59.6523 58.4365 59.8788 58.1672 60.0355C57.8979 60.1921 57.5913 60.2731 57.2798 60.27C57.012 60.2353 56.7605 60.1217 56.5575 59.9436C56.3544 59.7655 56.209 59.531 56.1398 59.27C56.1098 59.2 56.1998 59.16 56.2498 59.2Z" fill="#263238"/>
<path d="M60.6502 53.6901C60.6502 53.6901 61.2602 55.5301 61.4202 56.4201C61.4202 56.5001 61.2302 56.5801 60.9302 56.6601C60.1925 56.9428 59.391 57.0158 58.6144 56.8711C57.8379 56.7263 57.1165 56.3695 56.5302 55.8401C56.5103 55.8242 56.4975 55.801 56.4947 55.7757C56.4919 55.7504 56.4993 55.725 56.5152 55.7051C56.5311 55.6852 56.5543 55.6724 56.5796 55.6696C56.6049 55.6668 56.6303 55.6742 56.6502 55.6901C57.9281 56.2592 59.3559 56.3996 60.7202 56.0901C60.7202 55.8301 59.5702 52.9701 59.7202 52.9401C60.4207 52.8743 61.1268 52.9012 61.8202 53.0201C60.6702 49.1601 58.9102 45.5101 57.8202 41.6401C57.8069 41.6109 57.8058 41.5777 57.8171 41.5476C57.8283 41.5176 57.851 41.4933 57.8802 41.4801C57.9094 41.4668 57.9426 41.4657 57.9726 41.4769C58.0026 41.4882 58.0269 41.5109 58.0402 41.5401C60.0511 45.3958 61.6725 49.4425 62.8802 53.6201C63.0302 54.0801 61.0802 53.7501 60.6502 53.6901Z" fill="#263238"/>
<path d="M60.2201 56.56C59.8738 57.2627 59.3498 57.8625 58.7 58.3C58.3429 58.5278 57.9228 58.6363 57.5 58.61C56.57 58.55 56.39 57.74 56.42 57.02C56.4374 56.6338 56.5012 56.251 56.61 55.88C57.7106 56.4844 58.975 56.7226 60.2201 56.56Z" fill="#263238"/>
<path d="M58.7 58.3C58.3429 58.5278 57.9228 58.6364 57.5 58.61C56.57 58.55 56.39 57.74 56.42 57.02C56.8888 56.9442 57.3695 57.0294 57.7836 57.2619C58.1976 57.4944 58.5207 57.8603 58.7 58.3Z" fill="#FF9BBC"/>
<path d="M36.17 53.05C39.66 53.36 40.28 45.37 40.28 45.37C40.28 45.37 55.01 42.37 55.84 30.23C57.8809 35.0738 61.7094 38.9452 66.53 41.04C66.53 41.04 65.53 27.83 54.98 25.63C54.98 25.63 41.8 21.34 34.84 31.93C27.88 42.52 33.83 52.83 36.17 53.05Z" fill="#263238"/>
<path d="M55.8599 29.33C56.1031 31.1856 55.9428 33.0719 55.3899 34.86C54.8781 36.6924 53.9853 38.3962 52.7699 39.86C52.4566 40.2128 52.1227 40.5467 51.7699 40.86L51.2799 41.36C51.0999 41.52 50.9099 41.66 50.7199 41.81C50.3499 42.09 49.9899 42.39 49.5999 42.66C49.2099 42.93 48.7999 43.1399 48.3899 43.3699L47.7799 43.72L47.1299 43.99L45.8499 44.54C44.9599 44.82 44.0599 45.05 43.1699 45.27C44.0099 44.87 44.8699 44.56 45.6899 44.16L46.8899 43.52L47.4899 43.2C47.6899 43.08 47.8699 42.95 48.0599 42.82L49.1799 42.06C49.5299 41.79 49.8699 41.49 50.1799 41.2L50.6999 40.77L51.1599 40.28C51.4809 39.9661 51.7815 39.6321 52.0599 39.28C53.2069 37.8978 54.1068 36.3281 54.7199 34.64C55.0375 33.7916 55.285 32.9187 55.4599 32.03C55.6727 31.1435 55.8065 30.24 55.8599 29.33Z" fill="#263238"/>
<path d="M37.0098 59.7601C37.3039 59.8361 37.6061 59.8764 37.9098 59.88C38.2055 59.897 38.5021 59.87 38.7898 59.8C39.1535 59.713 39.4944 59.5493 39.7898 59.32C40.0321 59.1378 40.2476 58.9224 40.4298 58.68C40.692 58.3429 40.8887 57.9596 41.0098 57.55L39.4098 52.69C39.4098 52.69 34.6098 47.34 32.1398 49.12C29.6698 50.9 33.7598 58.9901 37.0098 59.7601Z" fill="#F7A9A0"/>
<path d="M33.37 51.39C33.32 51.39 33.32 51.47 33.37 51.48C35.66 52.1 37.06 53.98 38.12 55.98C37.9657 55.7771 37.7693 55.6099 37.5444 55.4899C37.3194 55.3699 37.0712 55.2999 36.8167 55.2847C36.5622 55.2695 36.3075 55.3095 36.0699 55.4019C35.8323 55.4943 35.6174 55.6369 35.44 55.82C35.44 55.87 35.44 55.95 35.52 55.93C35.8893 55.7681 36.2988 55.7215 36.695 55.7965C37.0912 55.8714 37.4554 56.0644 37.74 56.35C38.2085 56.8418 38.6241 57.3815 38.98 57.96C39.11 58.14 39.45 57.96 39.34 57.78V57.73C39.03 54.94 36.39 51.31 33.37 51.39Z" fill="#263238"/>
<path d="M37.1798 58.9401C37.2341 59.1033 37.3357 59.2468 37.4716 59.3524C37.6075 59.458 37.7717 59.5208 37.9434 59.5331C38.1151 59.5453 38.2865 59.5064 38.436 59.4212C38.5856 59.3359 38.7064 59.2083 38.7834 59.0544C38.8604 58.9004 38.89 58.7271 38.8684 58.5564C38.8469 58.3856 38.7752 58.2251 38.6624 58.0951C38.5496 57.9651 38.4008 57.8715 38.2348 57.8261C38.0688 57.7807 37.893 57.7856 37.7298 57.84C37.511 57.9131 37.3302 58.07 37.2271 58.2762C37.124 58.4825 37.1069 58.7212 37.1798 58.9401Z" fill="white"/>
<path d="M35.24 57.8501C35.3033 57.9897 35.4161 58.1009 35.5566 58.1622C35.6971 58.2235 35.8553 58.2306 36.0007 58.1821C36.1461 58.1337 36.2684 58.033 36.344 57.8997C36.4196 57.7663 36.4431 57.6097 36.41 57.4601C36.3575 57.3055 36.2462 57.1778 36.1002 57.1048C35.9541 57.0317 35.7852 57.0193 35.63 57.0701C35.5527 57.0949 35.4811 57.135 35.4194 57.1878C35.3577 57.2407 35.3073 57.3054 35.2709 57.378C35.2346 57.4507 35.2132 57.5299 35.2079 57.6109C35.2025 57.692 35.2135 57.7733 35.24 57.8501Z" fill="white"/>
<path d="M35.6498 59.1501C35.7398 60.0101 33.0198 57.2801 32.8598 56.8501C32.6998 56.4201 30.8598 55.2801 30.3998 54.4601C29.7259 53.2369 29.1732 51.9508 28.7498 50.6201C28.6398 50.0301 27.4398 48.6201 27.3698 47.5501C27.2998 46.4801 27.0798 37.0601 32.9698 30.3301C38.8598 23.6001 44.4298 22.8101 44.4298 22.8101C47.2215 22.1671 50.0751 21.8318 52.9398 21.8101C57.5698 21.8101 64.9398 32.1801 64.9398 32.4101C64.8246 32.9439 64.8246 33.4962 64.9398 34.0301C65.1998 34.6701 65.9398 35.2901 65.6298 35.9401C65.3198 36.5901 66.3498 38.1201 66.3798 38.7901C66.4098 39.4601 66.2498 39.6401 66.3798 40.0901C66.5098 40.5401 63.6498 29.0201 49.2798 25.8901C49.2798 25.8901 33.6498 40.6901 35.6498 59.1501Z" fill="#FF81AE"/>
<path d="M66.43 40.01C66.427 40.0533 66.427 40.0967 66.43 40.14V40.01Z" fill="#FF81AE"/>
<path d="M66.4302 40.01V40.14C66.4302 40.14 66.4702 40.13 66.4302 40.01Z" fill="#FF81AE"/>
<path opacity="0.3" d="M28.7301 45.5101C28.634 45.2562 28.4559 45.0416 28.224 44.9003C27.9922 44.759 27.7198 44.6991 27.4501 44.7301C27.3901 45.5701 27.3701 46.2601 27.3701 46.7301V47.0701C27.5759 47.1292 27.7943 47.1292 28.0001 47.0701C28.1511 47.0165 28.29 46.9334 28.4086 46.8257C28.5272 46.718 28.6233 46.5878 28.6912 46.4427C28.7591 46.2975 28.7975 46.1403 28.8042 45.9803C28.8109 45.8202 28.7857 45.6604 28.7301 45.5101ZM30.0001 52.5101C29.9337 52.3256 29.8234 52.1601 29.6789 52.0277C29.5343 51.8953 29.3597 51.8 29.1701 51.7501C29.3901 52.3001 29.6701 52.9401 29.9301 53.4801C30.0063 53.3368 30.0519 53.1793 30.064 53.0174C30.076 52.8556 30.0543 52.693 30.0001 52.5401V52.5101ZM33.4501 49.1101C33.3981 48.9648 33.3164 48.832 33.2101 48.7201C33.083 48.573 32.9216 48.4597 32.7401 48.3901H32.6101H32.4601C32.2748 48.3579 32.0842 48.3787 31.9101 48.4501C31.7616 48.5037 31.625 48.5861 31.5084 48.6926C31.3917 48.799 31.2973 48.9275 31.2304 49.0706C31.1635 49.2137 31.1255 49.3685 31.1186 49.5263C31.1117 49.6841 31.136 49.8417 31.1901 49.9901C31.2375 50.1405 31.3197 50.2775 31.4301 50.3901C31.5541 50.529 31.7096 50.6361 31.8837 50.7022C32.0578 50.7684 32.2452 50.7916 32.4301 50.7701C32.5068 50.7536 32.5808 50.7266 32.6501 50.6901H32.7001C32.9818 50.585 33.2138 50.378 33.3501 50.1101C33.4344 49.9646 33.4868 49.803 33.504 49.6358C33.5213 49.4686 33.5029 49.2996 33.4501 49.1401V49.1101ZM29.7601 38.9701C29.6807 38.7468 29.5364 38.5524 29.3458 38.4116C29.1552 38.2709 28.9269 38.1903 28.6901 38.1801C28.6856 38.2065 28.6856 38.2336 28.6901 38.2601C28.6001 38.5501 28.5201 38.8301 28.4401 39.1101L28.3801 39.3301C28.3001 39.6401 28.2201 39.9501 28.1501 40.2501C28.1501 40.3201 28.1501 40.3801 28.1001 40.4501C28.2452 40.5267 28.4049 40.5717 28.5687 40.582C28.7324 40.5923 28.8965 40.5678 29.0501 40.5101C29.3428 40.4018 29.5813 40.1828 29.7141 39.9003C29.8469 39.6179 29.8634 39.2946 29.7601 39.0001V38.9701ZM37.0501 44.9701C36.823 45.0555 36.6265 45.2068 36.4857 45.4045C36.345 45.6022 36.2664 45.8375 36.2601 46.0801C36.2553 46.2094 36.2757 46.3385 36.3201 46.4601C36.3926 46.6591 36.5169 46.8351 36.6801 46.9701C36.7701 46.6201 36.8701 46.2801 36.9701 45.9701C37.0701 45.6601 37.0901 45.5601 37.1601 45.3601C37.1601 45.3601 37.1601 45.3601 37.1601 45.3101C37.1601 45.2601 37.2401 45.0301 37.2901 44.8901C37.2054 44.9281 37.1249 44.975 37.0501 45.0301V44.9701ZM35.4901 55.9101V55.7101C35.4901 55.5001 35.4901 55.2901 35.4901 55.0801C35.4901 54.9801 35.4901 54.8801 35.4901 54.7801C35.4473 54.7702 35.4029 54.7702 35.3601 54.7801C35.1829 54.7356 34.9974 54.7356 34.8201 54.7801C34.5427 54.8844 34.3137 55.0877 34.1772 55.3507C34.0408 55.6138 34.0065 55.9181 34.081 56.205C34.1555 56.4918 34.3335 56.741 34.5808 56.9044C34.828 57.0678 35.127 57.1339 35.4201 57.0901H35.5001C35.5001 56.7401 35.4901 56.3501 35.4901 55.9701V55.9101ZM34.4901 42.0701L34.4001 41.8801C34.3549 41.8042 34.3013 41.7337 34.2401 41.6701C34.081 41.4981 33.8746 41.377 33.6469 41.3219C33.4192 41.2667 33.1803 41.28 32.9601 41.3601C32.8116 41.4137 32.6751 41.4961 32.5584 41.6026C32.4418 41.7091 32.3473 41.8375 32.2804 41.9806C32.2135 42.1236 32.1755 42.2785 32.1686 42.4363C32.1617 42.5941 32.186 42.7517 32.2401 42.9001C32.3042 43.0708 32.4057 43.225 32.5372 43.3513C32.6688 43.4777 32.8269 43.5729 33.0001 43.6301H33.2401C33.3386 43.655 33.4417 43.655 33.5401 43.6301C33.6225 43.6279 33.7037 43.6109 33.7801 43.5801C34.0609 43.4738 34.2912 43.2653 34.4247 42.9964C34.5582 42.7275 34.5852 42.418 34.5001 42.1301L34.4901 42.0701ZM33.9501 32.9401C33.8414 32.6404 33.618 32.3961 33.3292 32.2611C33.0404 32.1261 32.7098 32.1113 32.4101 32.2201C32.1104 32.3288 31.8662 32.5521 31.7312 32.8409C31.5961 33.1297 31.5814 33.4604 31.6901 33.7601C31.7437 33.9086 31.8261 34.0451 31.9326 34.1618C32.0391 34.2784 32.1676 34.3729 32.3106 34.4398C32.4537 34.5067 32.6086 34.5447 32.7664 34.5516C32.9241 34.5585 33.0817 34.5342 33.2301 34.4801L33.4001 34.4001C33.6086 34.2901 33.7787 34.1193 33.8877 33.9102C33.9966 33.7012 34.0393 33.464 34.0101 33.2301C33.9995 33.1522 33.9828 33.0753 33.9601 33.0001L33.9501 32.9401ZM42.8401 30.9901C42.7696 30.7912 42.6471 30.6148 42.4853 30.4794C42.3235 30.344 42.1283 30.2544 41.9201 30.2201H41.7101C41.5704 30.2198 41.4318 30.2434 41.3001 30.2901C41.1944 30.325 41.096 30.3792 41.0101 30.4501C40.8329 30.5908 40.698 30.7776 40.6201 30.9901C40.5439 31.2045 40.5302 31.4361 40.5807 31.6581C40.6311 31.88 40.7436 32.0829 40.905 32.2433C41.0665 32.4037 41.2702 32.5149 41.4924 32.5639C41.7146 32.6129 41.9462 32.5977 42.1601 32.5201C42.4569 32.4075 42.6981 32.1836 42.8325 31.8961C42.9669 31.6086 42.984 31.28 42.8801 30.9801L42.8401 30.9901ZM45.8401 24.9901V24.9301C45.7423 24.6715 45.549 24.4604 45.3001 24.3401C45.161 24.2627 45.0072 24.2156 44.8487 24.2018C44.6901 24.188 44.5305 24.2079 44.3801 24.2601H44.3301C44.095 24.3455 43.8925 24.5023 43.7508 24.7085C43.6092 24.9146 43.5355 25.16 43.5401 25.4101C43.5372 25.5434 43.561 25.676 43.6101 25.8001C43.6586 25.9262 43.7261 26.0442 43.8101 26.1501C43.9632 26.3318 44.1641 26.4669 44.3901 26.5401C44.6337 26.6202 44.8965 26.6202 45.1401 26.5401C45.2961 26.4884 45.4369 26.3991 45.5501 26.2801C45.721 26.1202 45.8413 25.9138 45.8964 25.6864C45.9515 25.459 45.9389 25.2204 45.8601 25.0001L45.8401 24.9901ZM52.1401 21.8201H52.0001H51.1701H50.7801H50.3601H49.8601C49.8454 21.9296 49.8454 22.0406 49.8601 22.1501C49.8552 22.21 49.8552 22.2702 49.8601 22.3301L49.9201 22.5301C49.96 22.6499 50.0209 22.7617 50.1001 22.8601C50.2061 22.9968 50.3406 23.1088 50.4944 23.1883C50.6481 23.2677 50.8172 23.3127 50.9901 23.3201C51.1658 23.3279 51.3411 23.297 51.5035 23.2296C51.6659 23.1623 51.8116 23.06 51.9301 22.9301C52.0507 22.7986 52.1397 22.6412 52.1901 22.4701C52.2377 22.2724 52.2342 22.066 52.1801 21.8701L52.1401 21.8201ZM38.6901 36.9701C38.5814 36.6704 38.3581 36.4261 38.0692 36.2911C37.7804 36.1561 37.4498 36.1413 37.1501 36.2501C36.8504 36.3588 36.6062 36.5821 36.4712 36.8709C36.3361 37.1597 36.3214 37.4904 36.4301 37.7901C36.556 38.0768 36.789 38.3029 37.0793 38.4203C37.3696 38.5376 37.6943 38.5368 37.984 38.418C38.2738 38.2993 38.5056 38.0719 38.6301 37.7846C38.7545 37.4972 38.7617 37.1726 38.6501 36.8801L38.6901 36.9701ZM37.6901 26.6701C37.6636 26.5921 37.6266 26.5181 37.5801 26.4501L37.5101 26.3601C37.4682 26.2997 37.4177 26.2458 37.3601 26.2001C37.2101 26.3001 37.0601 26.4201 36.9101 26.5401C36.5001 26.8501 36.0901 27.2001 35.6701 27.5401L35.5301 27.6601C35.5932 27.7608 35.6707 27.8518 35.7601 27.9301C35.9202 28.0843 36.1209 28.1897 36.3387 28.234C36.5566 28.2782 36.7825 28.2595 36.9901 28.1801C37.2803 28.0735 37.5181 27.8591 37.6541 27.5816C37.7901 27.304 37.8138 26.9846 37.7201 26.6901L37.6901 26.6701ZM63.6901 32.6701C63.5857 32.387 63.3785 32.1537 63.1098 32.0166C62.8411 31.8795 62.5306 31.8486 62.2401 31.9301H62.1501H62.0601H61.9701C61.8038 32.0249 61.6631 32.1587 61.5601 32.3201C62.1041 32.8687 62.6182 33.4462 63.1001 34.0501C63.1975 34.0019 63.2882 33.9414 63.3701 33.8701C63.4321 33.8081 63.4889 33.7412 63.5401 33.6701C63.6025 33.5854 63.6498 33.4907 63.6801 33.3901C63.7787 33.1707 63.8067 32.926 63.7601 32.6901L63.6901 32.6701ZM55.3001 26.9601C55.2566 26.8398 55.1923 26.7281 55.1101 26.6301C54.9537 26.4326 54.7395 26.2889 54.4975 26.219C54.2555 26.1491 53.9977 26.1565 53.7601 26.2401H53.7001C53.5425 26.3037 53.4008 26.4011 53.285 26.5255C53.1693 26.65 53.0822 26.7983 53.0301 26.9601L53.4801 27.1401L54.1001 27.3901C54.3101 27.4701 54.5201 27.5701 54.7301 27.6701L55.2401 27.9001C55.3227 27.7615 55.3767 27.6079 55.399 27.4482C55.4213 27.2885 55.4115 27.1259 55.3701 26.9701L55.3001 26.9601ZM61.4001 27.9601L61.0501 27.5601L60.6201 27.0901L60.2901 26.7301C60.0629 26.7181 59.837 26.771 59.6387 26.8825C59.4404 26.9941 59.2779 27.1597 59.1701 27.3601C59.1297 27.4393 59.0995 27.5233 59.0801 27.6101C59.0313 27.8102 59.0349 28.0196 59.0905 28.2179C59.1461 28.4163 59.2518 28.597 59.3975 28.7427C59.5431 28.8884 59.7239 28.9941 59.9222 29.0497C60.1206 29.1053 60.33 29.1088 60.5301 29.0601C60.573 29.0692 60.6173 29.0692 60.6601 29.0601L60.8401 28.9701C60.9178 28.9318 60.9887 28.8811 61.0501 28.8201C61.288 28.5989 61.4313 28.2944 61.4501 27.9701L61.4001 27.9601Z" fill="white"/>
<path opacity="0.1" d="M32.8799 56.85C32.7215 56.0129 32.6478 55.1619 32.6599 54.31C32.6599 53.46 32.6599 52.61 32.6599 51.76C32.6599 50.05 32.7299 48.35 32.8399 46.65C32.8399 46.23 32.8898 45.8 32.9498 45.39C33.0293 44.983 33.1568 44.5869 33.3298 44.21C33.6598 43.43 34.0499 42.67 34.4299 41.91C34.8099 41.15 35.2098 40.39 35.6098 39.64L36.8099 37.38C35.8999 38.82 35.0399 40.3 34.2199 41.8C33.8199 42.55 33.4298 43.32 33.0798 44.1C32.8967 44.5009 32.756 44.9199 32.6599 45.35C32.5999 45.78 32.5699 46.2 32.5399 46.63C32.4499 48.34 32.4099 50.05 32.4299 51.76C32.4299 52.61 32.4298 53.47 32.5198 54.32C32.5198 54.75 32.5898 55.17 32.6398 55.6C32.6745 56.0241 32.7549 56.4432 32.8799 56.85Z" fill="#050400"/>
<path opacity="0.1" d="M32.5201 39.28C31.9047 40.0915 31.3499 40.9471 30.8601 41.84C30.3532 42.7285 29.9153 43.6546 29.5501 44.61C29.1648 45.576 28.8897 46.5824 28.7301 47.61C28.5451 48.6183 28.5451 49.6518 28.7301 50.66C28.7301 50.41 28.7301 50.15 28.7301 49.9C28.7151 49.7738 28.7151 49.6463 28.7301 49.52V49.15C28.7301 49.02 28.7301 48.89 28.7301 48.77L28.7901 48.39C28.7901 48.15 28.8501 47.89 28.9101 47.65L29.0801 46.91L29.2901 46.19C29.3601 45.94 29.4401 45.71 29.5301 45.47C29.6201 45.23 29.6901 44.99 29.7901 44.76C30.1506 43.8155 30.5612 42.8909 31.0201 41.99C31.2401 41.53 31.4801 41.09 31.7301 40.64C31.9801 40.19 32.2601 39.69 32.5201 39.28Z" fill="#050400"/>
<path opacity="0.1" d="M64.8202 33.56C64.2984 32.7436 63.7025 31.977 63.0402 31.27C62.4002 30.54 61.7302 29.84 61.0402 29.15C60.3703 28.4453 59.6626 27.7777 58.9201 27.15C58.1509 26.5527 57.2986 26.0709 56.3901 25.72C56.8182 25.9448 57.2323 26.1952 57.6302 26.47C58.0345 26.7274 58.4189 27.0149 58.7802 27.33C59.1402 27.64 59.4702 27.98 59.7802 28.33L60.7802 29.33L62.7802 31.39C63.1202 31.73 63.4502 32.08 63.7802 32.44C64.1496 32.7915 64.4969 33.1655 64.8202 33.56Z" fill="#050400"/>
<path opacity="0.1" d="M65.6502 36.4301C65.3307 35.8087 64.9733 35.2076 64.5802 34.6301C64.1892 34.0488 63.7687 33.4881 63.3202 32.95C63.0899 32.6813 62.8462 32.4243 62.5902 32.1801C62.3302 31.9501 62.0702 31.72 61.8002 31.5L61.0002 30.8201C60.7302 30.6101 60.4602 30.38 60.1802 30.17L60.9002 30.9301L61.6502 31.66C61.8902 31.91 62.1502 32.15 62.4002 32.39C62.6429 32.628 62.8732 32.8784 63.0902 33.14C63.5402 33.67 63.9602 34.2201 64.3902 34.7601C64.6002 35.0401 64.8202 35.31 65.0202 35.59C65.2202 35.87 65.4402 36.1501 65.6502 36.4301Z" fill="#050400"/>
<path opacity="0.1" d="M34.21 29C36.65 29.86 42.21 31.76 43.44 31.58C43.8581 31.5028 44.2694 31.3925 44.67 31.25C46.0693 29.3497 47.6104 27.5579 49.28 25.89C50.9551 26.2471 52.5925 26.7627 54.17 27.43C55.4467 26.4681 56.6317 25.3901 57.71 24.21C56.06 22.84 54.38 21.86 52.96 21.86C50.0952 21.8807 47.2414 22.2161 44.45 22.86C44.45 22.86 39.65 23.49 34.21 29Z" fill="#050400"/>
<path d="M48.29 23.35C48.29 23.35 52.67 16.95 59.4 16.51C59.4 16.51 58.82 23.14 56.4 25.21C55.18 26.21 49.91 26.45 49.34 25.55C48.9133 24.8558 48.5613 24.1184 48.29 23.35Z" fill="#FF81AE"/>
<path opacity="0.3" d="M52.1799 21.8699C52.1241 21.7153 52.0365 21.574 51.9229 21.4552C51.8092 21.3364 51.672 21.2426 51.5199 21.18C51.237 21.0695 50.9229 21.0695 50.6399 21.18C50.4953 21.2285 50.3624 21.3068 50.2499 21.41C50.073 21.5698 49.9477 21.7786 49.8899 22.01C49.8752 22.1195 49.8752 22.2304 49.8899 22.34C49.885 22.3998 49.885 22.4601 49.8899 22.52C49.8808 22.5863 49.8808 22.6536 49.8899 22.72C49.9374 22.8384 50.0013 22.9495 50.0799 23.05C50.1859 23.1867 50.3205 23.2987 50.4742 23.3782C50.6279 23.4576 50.7971 23.5026 50.97 23.51C51.1456 23.5178 51.3209 23.4869 51.4833 23.4195C51.6458 23.3521 51.7914 23.2499 51.91 23.1199C52.0306 22.9884 52.1195 22.8311 52.1699 22.66C52.2623 22.4053 52.2659 22.1269 52.1799 21.8699ZM57.7399 21.06C57.5103 21.1452 57.3122 21.2987 57.1724 21.4998C57.0325 21.7009 56.9575 21.94 56.9575 22.185C56.9575 22.4299 57.0325 22.669 57.1724 22.8701C57.3122 23.0712 57.5103 23.2247 57.7399 23.31C57.9039 22.9859 58.0475 22.6519 58.1699 22.31C58.2199 22.19 58.2599 22.07 58.2999 21.95C58.3999 21.67 58.49 21.38 58.57 21.09C58.3059 20.9806 58.0112 20.9699 57.7399 21.06ZM55.0899 17.69L54.5799 17.94L54.0899 18.2L53.6199 18.47C53.7788 18.6161 53.9752 18.7151 54.1872 18.7558C54.3992 18.7964 54.6183 18.7771 54.82 18.7C55.0705 18.6101 55.2841 18.4396 55.4271 18.2151C55.5701 17.9906 55.6344 17.725 55.6099 17.46L55.0899 17.69Z" fill="white"/>
<path opacity="0.1" d="M48.29 23.36C48.5525 24.1171 48.8874 24.8472 49.29 25.54C49.316 25.586 49.354 25.6241 49.4 25.65C49.4406 25.6938 49.4879 25.7309 49.54 25.76L49.67 25.81C50.6079 26.098 51.5937 26.1966 52.57 26.1C52.4603 25.1144 52.2628 24.1405 51.98 23.19C51.5639 22.3631 50.8948 21.6905 50.07 21.27C49.4185 21.9149 48.823 22.6141 48.29 23.36Z" fill="#050400"/>
<path d="M46.6498 24.19C46.6498 24.19 37.3798 22.31 32.7998 24.11C32.7998 24.11 35.0198 29.11 39.6298 30.52C41.6998 31.16 47.9998 27.65 47.7198 26.52C47.474 25.697 47.1138 24.9127 46.6498 24.19Z" fill="#FF81AE"/>
<path opacity="0.3" d="M41.7201 30.26C41.4573 30.2592 41.2013 30.3434 40.9901 30.5C41.2903 30.4456 41.5874 30.3755 41.8801 30.29L41.7201 30.26ZM45.8801 25.04V24.98C45.7823 24.7214 45.589 24.5103 45.3401 24.39C45.2011 24.3126 45.0472 24.2655 44.8887 24.2517C44.7301 24.2379 44.5705 24.2578 44.4201 24.31H44.3701C44.135 24.3954 43.9325 24.5522 43.7908 24.7584C43.6492 24.9645 43.5755 25.2099 43.5801 25.46C43.5772 25.5933 43.601 25.7259 43.6501 25.85C43.6986 25.9761 43.7661 26.0941 43.8501 26.2C44.0032 26.3816 44.2041 26.5168 44.4301 26.59C44.6737 26.6701 44.9366 26.6701 45.1801 26.59C45.3361 26.5383 45.4769 26.449 45.5901 26.33C45.761 26.1701 45.8813 25.9637 45.9364 25.7363C45.9915 25.5089 45.9789 25.2703 45.9001 25.05L45.8801 25.04ZM37.7201 26.69C37.6936 26.612 37.6566 26.538 37.6101 26.47L37.5402 26.38C37.4983 26.3196 37.4477 26.2657 37.3901 26.22C37.2265 26.0821 37.0298 25.9893 36.8193 25.9507C36.6089 25.9121 36.392 25.9291 36.1901 26C36.0416 26.0536 35.9051 26.136 35.7884 26.2425C35.6718 26.349 35.5773 26.4774 35.5104 26.6205C35.4435 26.7635 35.4055 26.9184 35.3986 27.0762C35.3917 27.234 35.416 27.3916 35.4701 27.54C35.4879 27.6054 35.5185 27.6665 35.5601 27.72C35.6189 27.8239 35.6931 27.9183 35.7801 28C35.9769 28.1865 36.2311 28.3009 36.5013 28.3245C36.7715 28.3481 37.0416 28.2795 37.2678 28.1299C37.494 27.9803 37.6628 27.7585 37.7468 27.5006C37.8307 27.2428 37.8248 26.9641 37.7301 26.71L37.7201 26.69Z" fill="white"/>
<path opacity="0.1" d="M44.4901 23.83C44.1954 24.8389 44.1954 25.911 44.4901 26.92C44.755 27.5289 45.1511 28.0718 45.6501 28.51C46.8901 27.74 47.7701 26.96 47.6501 26.51C47.4042 25.6808 47.0441 24.8898 46.5801 24.16C46.5801 24.16 45.7801 24.01 44.4901 23.83Z" fill="#050400"/>
<path d="M45.5301 26.25C45.7841 26.8018 46.196 27.2658 46.7138 27.5834C47.2316 27.9009 47.832 28.0578 48.439 28.034C49.046 28.0103 49.6322 27.807 50.1236 27.4499C50.615 27.0928 50.9894 26.598 51.1995 26.028C51.4096 25.458 51.4458 24.8386 51.3037 24.248C51.1615 23.6575 50.8474 23.1223 50.401 22.7104C49.9547 22.2984 49.3961 22.0281 48.7961 21.9337C48.196 21.8393 47.5814 21.925 47.0301 22.18C46.6638 22.348 46.3342 22.5867 46.0603 22.8824C45.7865 23.1782 45.5738 23.5251 45.4344 23.9033C45.295 24.2815 45.2317 24.6835 45.2481 25.0862C45.2646 25.4889 45.3604 25.8844 45.5301 26.25Z" fill="#FF81AE"/>
</svg>
